<svg width="299.4" height="98.40365067208984" viewBox="0 0 370 121.60771793144036" class="css-1j8o68f"><defs id="SvgjsDefs1847"><linearGradient id="SvgjsLinearGradient1854"><stop id="SvgjsStop1855" stop-color="#8f5e25" offset="0"></stop><stop id="SvgjsStop1856" stop-color="#fbf4a1" offset="0.5"></stop><stop id="SvgjsStop1857" stop-color="#8f5e25" offset="1"></stop></linearGradient><linearGradient id="SvgjsLinearGradient1858"><stop id="SvgjsStop1859" stop-color="#8f5e25" offset="0"></stop><stop id="SvgjsStop1860" stop-color="#fbf4a1" offset="0.5"></stop><stop id="SvgjsStop1861" stop-color="#8f5e25" offset="1"></stop></linearGradient><linearGradient id="SvgjsLinearGradient1862"><stop id="SvgjsStop1863" stop-color="#8f5e25" offset="0"></stop><stop id="SvgjsStop1864" stop-color="#fbf4a1" offset="0.5"></stop><stop id="SvgjsStop1865" stop-color="#8f5e25" offset="1"></stop></linearGradient></defs><g id="SvgjsG1848" featurekey="T16ghp-0" transform="matrix(1.5110305158487471,0,0,1.5110305158487471,0,-0.0000014410309942710372)" ><path xmlns="http://www.w3.org/2000/svg" d="M53.38,15.2c.43-1.08,.95-1.75,1.43-2.16,.67-.56,1.27-.65,1.57-.65,.12,0,.19,.02,.2,.02,.14,.02,.27-.07,.3-.2,0-.03,0-.06,0-.09,0-.02,0-.03,0-.04,0-.02,0-.04,0-.06-.03-.13-.17-.22-.3-.2-.03,.01-.84,.15-1.77-.63-1.19-1.02-2.59-3.6-2.59-10.11v-.05c0-.25,0-.51,.01-.78,0-.13-.11-.25-.25-.25h-.02c-.14,0-.25,.12-.25,.25,.01,.27,.01,.53,.01,.78v.05c0,6.51-1.4,9.09-2.6,10.11-.41,.35-.8,.52-1.12,.59h0s0,.01-.01,0c-4.47-2.26-9.54-3.54-14.89-3.54C14.84,8.24,0,23.09,0,41.33c0,1.16,.06,2.31,.18,3.44,.68,6.57,3.29,12.57,7.26,17.43,1.25,1.55,2.65,2.98,4.17,4.28-.27,.42-.55,.73-.82,.96-.92,.78-1.74,.64-1.77,.63-.13-.02-.27,.06-.29,.2-.01,.04-.01,.07,0,.1-.01,.03-.01,.06,0,.09,.02,.13,.15,.22,.29,.2,.03-.01,.85-.15,1.77,.63,1.2,1.02,2.59,3.6,2.59,10.11v.83c0,.13,.11,.25,.24,.25h.03c.13,0,.24-.12,.24-.25,0-.27-.01-.53-.01-.78v-.05c.01-5.78,1.1-8.46,2.19-9.7,4.98,3,10.8,4.72,17.02,4.72,9.03,0,17.23-3.63,23.2-9.51,6.1-6.01,9.89-14.36,9.89-23.58,0-10.6-5.02-20.06-12.8-26.13Zm11.8,26.13c0,.86-.03,1.71-.1,2.55l-.13,.08-.2-2.99,.42-.23c.01,.2,.01,.39,.01,.59Zm-.02-1.16l-.48,.27-.53-2.97,.61-.25,.14-.1c.14,1,.22,2.02,.26,3.05Zm-1.33,1.3l.44-.24,.2,3.05-.5,.48v.02s-.02,.01-.02,.01l.02-.03-.14-3.29Zm-18.17,27.23h-.07l-.02,.02h-.01s-.02,.01-.03,.01l-1.51,.27,.73-1.37,2.84-.57-1.24,1.51h-.01l-.32,.07-.17,.03-.19,.03Zm.14,.48l-.09,.02h.01l.08-.02Zm-31.88-10.16l1.46,.24,.73,2.48-2.01-.37h0c-.08-.71-.15-1.49-.18-2.35Zm-.27-2.77h-.03c-.13,0-.24,.12-.24,.25v.3l-.2-1.06s.03,.01,.04,.01l2.54,.26,.66,2.91-.81-.13h-.09l-1.62-.27c-.01-.38-.02-.78-.02-1.19v-.05c0-.25,.01-.51,.01-.78,0-.13-.11-.25-.24-.25Zm-1.45,2.49l1.14,.19c-.02,.77-.07,1.48-.14,2.12l-1-2.31Zm.95,2.69s.01,.1-.01,.15c0,.01-.01,.01-.01,.02,.01-.05,.02-.11,.02-.17Zm-.4-.26s-.02,.01-.03,.03l-.02-.05,.05,.02ZM33.6,12.7l.15,1.51h-3.92l.6-1.39,3.17-.12Zm-3.06-.39l.45-.86h2.73l-.1,.75-3.08,.11Zm20.08,3.02c.07,.16,.13,.34,.19,.53l-.72,.09-1.77-1.63s.03,0,.03,0c.02,0,.02-.01,.04-.01h.02l.65-.12,1.56,1.15Zm-1.08-1.41l.15-.05h.01l.27,.18h.01c.07,.11,.13,.22,.19,.34l-.63-.47Zm1.1,2.55l.49,.55c.13,.52,.24,1.09,.32,1.73-.05,0-.08,.04-.1,.08l-1.97-2.22,1.26-.14Zm1.04,4.87l-.91,.03-1.25-2.04,1.69-.04c.07,0,.13-.03,.17-.08l.16,.21h0c.06,.6,.11,1.23,.14,1.92Zm.54,1.86v-.05c0-.47,.01-.92,.03-1.34l.92-.03h.01l1.49,2.39-2.33,.49-.22-.48c.07-.04,.11-.12,.11-.2-.01-.27-.01-.53-.01-.78Zm4.63,33.73s0,.01-.01,.01h-.01s-.03,0-.05,0c-.01,0-.02,.01-.02,.01l-1.88,.65,.67-2.78,1.92-.58-.63,2.68h.01Zm-1.6-32.76l-1.5-2.41,.94-.31,1.59,2.36-1,.4h0l-.03-.04Zm1.15,.56l1.35,2.55-1.21,.2s-.07,.01-.1,.02l-.4,.06-1.38-2.56,1.74-.27Zm4.79,5.5l-.92,.28-1.64-2.88,1.01-.21h0l1.55,2.81ZM8.91,50.92v-.09l-.21-3,.72,.16,.16,.04s.02,0,.03,.01h.06s.01,.02,.02,.02h.03l.16,.04,.13,.03,.79,.15s-.01,.03,0,.04h-.01s-.01,.05-.01,.07c0,.1,.07,.19,.16,.23v2.76l-1.06-.24s-.04,0-.06,0l-.89-.2h-.02ZM59.77,30.64l-1.49,.38-1.38-3.09,1.21-.2h0l1.66,2.91Zm-2.69,5.01s.04-.01,.06-.01l.21-.05,.89-.19,.72,3.44-1.68,.27h-.07l-.3,.05-.57-3.37,.74-.14Zm1.98,3.69l.69,3.14-1.71,.35h-.01l-.48-3.26,1.51-.23Zm-6.98,5.12s.07-.02,.1-.04l.28-.04v3.46l-2.19,.25-.14-3.32,1.95-.31Zm-.21-3.82l.43-.05,1.5-.18h.09l.09-.02,.15-.02h.05l.37-.05,.25,3.27-1.89,.24-.18,.02h-.04l-.64,.08-.18-3.29Zm.81,7.67h.06l.87-.12-.13,3.14h0l-.27,.05h-.04l-2.67,.53-.21-3.33,2.39-.27Zm.28-.54v-3.44l2.53-.27,.06,3.37h0l-1.39,.19-.32,.04-.88,.11Zm2.34-4.19h-.01l-.25-3.39,1.69-.49h.04l.28-.05,.5,3.33-1.85,.56h-.01l-.39,.04Zm1.12-4.31l-1.84,.53s-.02,.01-.03,.01h-.01s-.01,0-.01,0l-.29,.03-.68-3.52,1.09-.21s.03-.01,.05-.01l1.15-.22,.57,3.38Zm-3.13-3.38h-.09l-1.45,.14-.5-3.52,1.08-.08h.02l1.29-.05,.71,3.29-1.06,.22Zm-1.99,.69l.26-.03,1.5-.14,.68,3.5v.02l-1.2,.12-.97,.12-.49,.05-.37-3.58,.59-.06Zm-.88-.42s-.01,0-.02,.01l-2.13,.21-.38-3.57,2.73-.25h.12l.51,3.52-.83,.08Zm-4.18,12.51l-.22-3.49,2.02-.19,.19-.02,.24-.02h.01l1.15-.11,.14,3.4-3.53,.43Zm3.56,.07l.21,3.26-2.32,.31,.08-3.32,2.03-.25Zm-20.25,11.35h-.1l-2.54-.14-.32-2.93,.41,.02c.02,.1,.12,.17,.22,.17l2.83,.1,.29,2.82-.79-.04Zm1.06,.55h.01l2.29,.04,.13,2.23h-2.76l-.46-2.31,.79,.04Zm-10.4-4.61l-.47-2.99,1.06,.12h.03l2.24,.13,.3,3.07-.85-.04h-.04s-.02,0-.03,.01h0l-2.24-.3Zm-11.01-15.83h.07l.9,.2h.01l.15,.03,.19,.04,.18,.04,1.04,.22-.37,3.26-1.47-.17s-.07-.06-.12-.07l-.75-.19,.17-3.36Zm-.18-.56h-.01l-.68-.16c.06-.48,.23-1.69,.5-3.23l2,.3c-.29,1.59-.48,2.83-.56,3.36v.02l-.89-.21-.36-.08Zm1.78,.38h-.03c.07-.53,.26-1.79,.55-3.41l2.59,.27c-.18,1.75-.24,3.04-.26,3.46l-2.85-.32Zm1.06,4.03l.39-3.36,1.36,.15,1.05,.08-.08,3.54-1.81-.27-.91-.13h0Zm2.29-3.68c.01-.39,.08-1.68,.26-3.45l2.79,.28c-.28,1.8-.38,2.91-.42,3.38l-1.85-.15h-.01l-.77-.06Zm.31-3.95c.11-1.03,.26-2.2,.47-3.42,1.08,.08,2.1,.13,3,.18-.28,1.36-.49,2.54-.65,3.53l-2.82-.29Zm13.33,1l-.24,3.74-2.52-.06h-.61l.62-3.52,2.75-.16Zm-2.7-.34l.19-3.77h3.01v3.58l-3.2,.19Zm.16,4.53l3.37,.07v3.63l-1.93-.05-1.6-.07,.16-3.58Zm2.81-.51l.24-3.63,3.26,.11v3.45l-3.5,.07Zm.7-8.16c-.04-.08-.12-.13-.22-.13h-2.39l.6-3.17,2.31,.03-.3,3.27Zm-2.43-3.81l-3.18-.04,.66-3.19,1.59,.09s.11,.07,.18,.07h1.33l-.58,3.07Zm-.09,.5l-.6,3.18h-.6l-3.11,.03,.45-3.25h.47l3.39,.04Zm-1.46,3.68l-.19,3.78-3.45-.18,.4-3.57h.02l3.22-.03Zm-3.35-.5h-.12c-.12,0-1.19-.03-2.77-.11,.21-.97,.44-2.03,.73-3.18,1.2,.04,2.15,.06,2.6,.07l-.44,3.22Zm-.39,.49l-.4,3.59-2.86-.15c.16-.99,.38-2.17,.66-3.54,1.23,.06,2.17,.09,2.6,.1Zm.04,4.11l3.45,.17-.61,3.5-2.5-.06h-.04l-.71-.11,.41-3.5Zm.55,4.12l3.12,.07-.16,3.57-1.64-.07c-.04-.06-.12-.1-.2-.11l-1.12-.03v-3.43Zm1.37,4.07l3.43,.15v3.48l-1.87-.08s-.03,0-.04,.01c-.01-.01-.02-.01-.03-.01l-1.49-.11v-3.44Zm3.67,4.14h.01l1.15,.02,.2,3.25-3.11-.13-.18-3.22,1.93,.08Zm1.3-.47l-1.04-.02v-3.48l1.73,.04,1.46,.04v3.46h-.01l-2.14-.04Zm1.15-3.95v-3.52h3.84l-.1,3.56-2.34,.05s-.09-.06-.15-.06l-1.25-.03Zm2.93-4.02s0-.03,0-.04v-3.67h3.57l.18,3.71h-3.76Zm1.41,.5h2.61c.07,0,.14-.02,.18-.07,.01-.01,.02-.02,.03-.04h.49l-.08,3.66h-3.32l.09-3.55Zm2.84-.61l-.17-3.6h.74l2.59-.12,.2,3.6h-2.63c-.09,0-.17,.05-.21,.12h-.52Zm4.43-8.62l-2.89,.17-.06-3.25,1.06-.04h.07l2.46-.22,.32,3.34h-.96Zm1.25,.5l1.87-.1,.64,3.72-1.12,.07h-.02l-1.98,.12-.35-3.81h.96Zm-1.46,.01l.35,3.82-1.16,.06h-.02l-2.6,.12-.24-3.79,3.67-.21Zm-3.25,8.55v-.06h3.44l.29,3.58v.03h-.04l-2.64,.11h-.02l-1.12,.05,.09-3.71Zm2.9-.57l-.21-3.61,1.18-.06h.01l1.98-.11,.23,3.58h0l-3.19,.2Zm3.45,.29h.02l.74-.05,.12,3.48-3.02,.29-.27-3.57,2.41-.15Zm1.29,3.89s.01,0,.02-.01h0s.04,0,.06-.01l.52-.04,.22,3.53-2.11,.17h-.03l-.95,.04-.03-3.41s0-.03-.01-.05l2.3-.22Zm.09-.52l-.12-3.45,2.47-.15h.06l.6-.04,.18,3.38-.19,.02-3,.24Zm-.39-3.94h-.01l-.74,.05-.23-3.58,1.15-.07s.02,0,.02-.01h.05l1.82-.16,.4,3.63-2.46,.14Zm2.31-4.28h-.05l-1.88,.16-.64-3.72,1.07-.06h.01l1.96-.05,.38,3.59-.85,.08Zm-4.73-3.94l-.32-3.36,2.53-.17,.72,3.37-2.93,.16Zm-.61-3.84l-2.49,.21-.19-2.88,3.19-.17h.08l.54,2.74-1.13,.1Zm-3.67-3.17v-2.77h3.11l.73,2.6-3.84,.17Zm.48,.48l.2,2.93-.93,.04s-.09-.05-.15-.05l-2.31,.06-.08-2.95h2.72s.01,0,.02,0l.53-.02Zm-1.16,3.43h.04v.02l.07,3.22-2.98,.04v-3.2l2.87-.08Zm-.89,3.75l.25,3.88h-3.41v-3.84h1.1l2.06-.04Zm-2.48-.47h-.95l-3.64,.06,.29-3.14,4.3-.11v3.19Zm-4-7.18h-3.87l.56-2.7h1.8l1.63,.02-.12,2.68Zm-1.73-3.19h-1.79l-1.56-.11,.77-2.17,2.97,.06-.39,2.22Zm-2.09,.47l-.55,2.65-1.76-.09-1.36-.07h0l.56-2.68,3.11,.19Zm-3.6,2.99l.87,.03v.02l-.67,3.21h-.48s-1.16-.01-2.77-.06c.24-1.03,.52-2.12,.83-3.29l1.83,.07,.39,.02Zm-3.58,3.18c-.93-.03-2-.07-3.09-.13,.28-1.1,.61-2.18,.99-3.2l2.95,.05c-.31,1.17-.59,2.26-.85,3.28Zm-.12,.5c-.27,1.15-.51,2.2-.71,3.17-.9-.04-1.93-.1-3.02-.18,.17-1.02,.38-2.07,.64-3.12,1.08,.06,2.15,.1,3.09,.13Zm-1.04,7.73l2.88,.14-.41,3.47-1.96-.16h-.09l-.84-.07c.03-.46,.13-1.57,.42-3.38Zm.68,3.97l1.98,.16h.04l.73,.11v3.47l-1.99-.05h-.05l-1.02-.13,.31-3.56Zm.98,4.19l3.14,.09v3.51l-3.14-.35v-3.25Zm3.36,4.12h.05l1.46,.11,.19,3.22-1.15-.06-2.21-.12-.29-3.29,1.95,.14Zm.92,7.34h.03l2.41,.12,.33,2.93-1.08-.05h-2.06l-.48-3.04,.85,.04Zm.23-.48l-.29-3.07,1.04,.06h.07l2.16,.39,.11,2.77-3.09-.15Zm3.6,.33l-.12-2.92h3.72l-.1,3.04-3.5-.12Zm3.15-7.38v-3.43l2.39-.05h1.13v3.45l-1.83,.07s-.04,0-.05,0l-1.64-.05Zm4.31,4.46l.1,2.87-.89,.04h-.03l-.47,.03h-.13l-.2,.02-1.66,.07-.07-3.03h3.35Zm-2.43-.5v-2.06l.06-1.37,3.09-.11v3.54h-3.15Zm3.41,.5l2.87-.16v2.92l-3.25,.09-.09-2.85h.47Zm.24-.52v-3.54l3.66-.17-.04,3.5-.75,.05-2.87,.16Zm2.5-4.16l-.08-3.33,2.71-.11c.06-.01,.13-.04,.17-.09h0l.67-.07,.03,3.44-2.09,.1-1.41,.06Zm1.66,.43l1.89-.09,.41-.02,.76-.04v3.41l-3.1,.22,.04-3.48Zm2.86,3.77l.59-.04s.05-.01,.08-.02h.01l2.53-.27-.23,2.88s-.1-.04-.15-.03l-3.05,.42,.22-2.94Zm.7-.57v-3.38l2.12-.17h.12l.19-.03,.96-.07-.07,3.28v.02l-.36,.04h-.1l-.09,.02h-.04l-2.73,.29Zm3.7-12.15l-.4-3.62,.88-.08h.02l2.14-.22,.37,3.6-3.01,.32Zm.04-8.27h-.02l-1.96,.05-.72-3.37h-.28l.28-.02v.02l3.43-.06,.54,3.26-1.27,.12Zm-2.89-3.81h-.14l-.02,.02h0l-1.34,.08-.54-2.76,2.9-.15,.84,2.64-1.7,.17Zm-2.33-3.14h-.12l-.74-2.62,3.19-.34,.72,2.8-3.05,.16Zm-1.18-3.09l-.67-2.6,.84-.03h.01l1.88-.05,1.24,2.33-3.3,.35Zm-.51,0h-3.68l-.41-2.4h3.47l.62,2.4Zm-3.89,.5h.6v2.78h-3.48v-2.71l2.88-.07Zm-2.19,3.28l.08,2.92-3.42,.1-.11-3.02h3.45Zm-1.19-.6l-3.07,.09,.12-2.68,2.95-.08v2.67Zm-.99-3.14l-2.1,.06h-1.7l.38-2.22,3.42-.07v2.23Zm-3.83-2.67l-3.1-.06,.56-2.58,2.97,.2-.43,2.44Zm-.35-3.15h-3.4l.78-1.7,3.04-.09-.42,1.79Zm-2.71,.5l-.55,2.57-3.09-.17,.86-2.4h2.78Zm-.53,3.07l-.73,2.07h-3.29l.74-2.25,3.28,.18Zm-2.59,2.57l-.57,2.66-1.65-.06h-.31l-1.37-.03,1.03-2.61,1.07,.04h1.8Zm-4.43,2.56l-1.41-.02-1.32-.04,1.08-2.63,2.67,.08-1.02,2.61Zm-1.77,.47c-.38,1.02-.7,2.1-.97,3.19-.74-.04-1.48-.08-2.19-.14,.32-1.15,.68-2.22,1.06-3.11l2.1,.06Zm-1.09,3.68c-.25,1.05-.46,2.1-.64,3.12-.76-.06-1.54-.12-2.33-.2,.24-1.03,.49-2.07,.77-3.06,.71,.06,1.46,.11,2.2,.14Zm-.72,3.61c-.2,1.22-.35,2.38-.46,3.41l-2.55-.26c.19-1.03,.41-2.17,.66-3.34,.79,.07,1.58,.14,2.35,.19Zm-3.51,3.08l-2-.29c.18-1,.39-2.12,.64-3.26,.66,.08,1.34,.16,2.02,.23-.25,1.16-.47,2.3-.66,3.32Zm-2.49-.38l-1.9-.33c.2-.98,.44-2.07,.73-3.2,.57,.11,1.17,.2,1.8,.29-.25,1.13-.46,2.24-.63,3.24Zm-.08,.5c-.26,1.5-.43,2.68-.5,3.2l-1.97-.45c.07-.47,.26-1.61,.55-3.09l1.92,.34Zm-1.28,3.54l1.65,.37-.17,3.24-1.73-.42,.25-3.19Zm.73,4.05l1.68,.43v3.31h-.02l-1.76-.47,.1-3.27Zm2.18,3.85v-3.28l1.55,.18h.01l.84,.1v3.47l-2.4-.47Zm1.47,1.03h2.23l.17,3.28-2.4-.41v-2.87Zm1.43-.75v-3.18l1.86,.27s.06,.02,.09,.02h.72v3.22l-1.35-.17s-.03-.01-.04-.01l-.22-.02h-.04l-1.02-.13Zm2.89,.86l.65,.08,.5,.07,.09,3.35-.83-.08-1.82-.18-.19-3.44,1.6,.2Zm.28-.47v-3.25l2.82,.35v3.23l-2.82-.33Zm3.04,.86h.03l1.15,.13,.29,3.37-1.02-.11s-.06-.01-.09-.01h-.04l-1.9-.22-.08-3.35,1.66,.19Zm3.19,7.65l.48,3-.53-.1s-.04-.01-.06-.01l-2.32-.31-.43-2.93,2.86,.35Zm.69,3.55h.05s.03,.02,.05,.02h1.85l.5,2.59-2.25-.25-.65-2.45,.45,.09Zm-.11,2.81s.01,.01,.02,.01l2.69,.3,.57,1.89-2.37-.07h-.11l-.68-.07-.77-2.13,.64,.07s0,.01,.01,0Zm3.21,.26h3.17l.38,2.03-2.95-.08-.6-1.95Zm-.14-.5l-.5-2.54,1.23,.06s.02,.01,.03,.01h.02l2.61,.13,.46,2.34h-3.85Zm7.44,.5v2.04h-3.24l-.38-2.04h3.62Zm-.09-3.21l-2.42-.05-.28-2.74,2.76-.15h.21l.33-.03-.09,2.97h-.51Zm.38,.49h.47l3.45-.11-.16,2.33h-3.87l-.12-2.21h.23Zm.64-.52l.07-2.97,.93-.05h.01l2.81-.08v2.96l-.35,.04h-.03l-3.44,.1Zm3.78,.37l2.53-.3-.21,2.56-2.48,.08,.16-2.34Zm1.21-4.01v-2.94l.74-.05s.05,0,.08-.01l1.77-.12,.79-.05-.21,2.95-3.17,.22Zm2.41,6.63l3-.28-.44,2.02-1.16,.16h-.04l-1.76,.2,.4-2.1Zm1.24-3.63l-.51,.04-.5,.04,.23-2.74,.55-.08,3.05-.42-.4,2.95-2.42,.21Zm4.63,2.35l-2.39,.42,.41-2.39,2.46-.37-.48,2.34Zm.78,.37l-.81,2.15-.86,.19h-.02l-1.88,.25,.44-2.04,3.13-.55Zm-2.49-2.89l.39-2.91s.09,.04,.13,.04h.05l2.99-.53-.81,2.99-2.75,.41Zm.8-3.42l.23-3.02,.68-.09,2.47-.33-.49,2.93-2.89,.51Zm3.22-11.64h-.11l-1.07,.11-.18-3.42,2.34-.26h.03l.48-.05,.19,3.35-1.68,.27Zm.68,8.1l2.37-.47-.43,2.88-2.43,.51,.49-2.92Zm2.36,2.84l2.09-.31-.67,2.84-2.11,.46,.69-2.99Zm.1-.52l.43-2.88,1.6-.25,.3-.04,.42-.07h0l-.63,2.92-2.12,.32Zm2.69-3.73h-.01l-.43,.06-1.27,.18,.13-3.11,.44-.06,1.36-.19h.01l.42-.06-.33,3.13-.26,.04h-.06Zm.35-3.63l-.07-3.38h0l1.88-.57,.2,3.33-1.46,.55h-.06l-.49,.07Zm.81,.37l2-.56-.27,2.89-2.05,.74,.32-3.07Zm1.7-.99l-.21-3.46,1.47-.3,.23,3.26-.91,.34h-.05l-.03,.02-.5,.14Zm.99-7.52l1.49-.5,.1-.04,.65,3.08-1.55,.61-.69-3.15Zm.6-4.63s-.05,.01-.08,.02l-.44,.06-1.16-3.19,1.53-.38,1.14,3.08-.99,.41Zm-1.87-7.4l-1.33-2.5,.9-.24,1.4,2.54-.97,.2Zm-2.76,.45l-1.91,.29-1.06-2.76,1.57-.1,1.4,2.57Zm-2.03,.8h.08l.18-.03,1.18,3.2-1.14,.26-1.27,.05-1.08-3.5,2.01,.02h.04Zm-1.49,3.51l-1.03,.08h-.03l-.36,.03-1.21,.09-.53-3.24,2.14-.26,1.02,3.3Zm-5.08-3.64l-.83-2.64,2.72-.27,1.12,2.79-3.01,.12Zm-.97-3.13l-.72-2.8,2.51-.18,.89,2.72-2.68,.26Zm-.89-3.29l-1.2-2.25,1.1-.07,.71-.04h.17l.57-.05h0l1.37,2.22-2.72,.19Zm1.91-2.44l1.54-.09h.44l1.34,2.18-1.95,.12-1.37-2.21Zm-.4-.47l-.76,.04h0l-1.38-2v-.02s.03,0,.06,0h.03l1.88-.15h.01l.04,.06,1.03,1.28,.55,.69-1.45,.09Zm-1.99,.1l-3.04,.08-.91-1.82,3.09-.2,.86,1.94Zm-3.06-2.37l-1.21-2h2.39l1.33,1.83-2.51,.17Zm-2.73-2.5l-.71-1.43,2.41,.09,1.23,1.34h-2.93Zm.9,.5l.58,1.95-1.88,.06h-1.26l-.64-2.01h3.2Zm-1.31,2.51h.01l1.61-.05s.01,.03,.01,.05l.97,1.95-3.25,.11-.67-2.06h1.32Zm-1.14,2.17h-.94l-2.82,.18-.07-2.35h3.12l.71,2.17Zm-1.13,.51l.41,2.4-2.66,.06c-.05-.05-.12-.07-.19-.07l-.73,.02v-2.22h.32l2.85-.19Zm-7-.24l.43-2.42,3.03-.02h.34l.07,2.37-3.87,.07Zm2.78-2.96v.03h-2.57l-.59-.03,.46-1.99h3.18l-.48,1.99Zm-2.88-2.49h-2.4l.65-1.33h2.6l-.56,1.33h-.29Zm-3,.08l-.54,.02-2.53,.09,1.05-1.62,2.71,.09-.69,1.42Zm-.93,.53l-.77,1.69h-3.11l1.38-1.59,2.5-.1Zm-2.84,2.19l-.85,2.38h-2.59s-.05,0-.07,.01c-.01,0-.02,0-.03,.01h-.01s0,.01,0,.01h0v-.04l1.11-2.39,.84,.02h1.6Zm-4.07,2.31v.02l-2.65-.21,1.83-2.21,1.91,.05-1.09,2.35Zm-2.47,.33l2.71,.21-1.06,2.19-1.16-.03h0l-1.72-.05,1.24-2.32Zm.12,2.86l-1.07,2.62h0l-.77-.02h-.01l-1.44-.1,1.12-2.57,2.18,.07Zm-2.22,3.07c-.37,.91-.72,1.97-1.04,3.11-.71-.05-1.38-.12-1.98-.19,.36-1.2,.77-2.27,1.22-3.04h0l1.8,.12Zm-1.18,3.6c-.26,1-.51,2.03-.74,3.06-.68-.07-1.36-.15-2.02-.24,.23-1.03,.49-2.06,.77-3.02,.6,.08,1.28,.14,1.99,.2Zm-3.26,2.75c-.62-.07-1.22-.17-1.79-.27,.27-1.04,.58-2.09,.92-3.09,.39,.13,.96,.24,1.64,.34-.29,.96-.54,1.99-.77,3.02Zm-2.29-.37l-1.35-.27s-.01,0-.01-.01h-.01l-.1-.02v-.04l.84-2.83,1.53,.12c-.33,.99-.63,2.03-.9,3.05Zm-.12,.49c-.29,1.13-.53,2.22-.72,3.2l-1.52-.27,.77-3.24,1.47,.31Zm-.82,3.7c-.29,1.45-.47,2.58-.55,3.07l-1.33-.24,.38-3.1,1.5,.27Zm-1.26,3.45l.84,.15h.04l1.03,.25-.27,3.19-.9-.2s-.06-.02-.1-.02l-.84-.19,.2-3.18Zm.89,3.93l.92,.21h.06l.76,.2-.1,3.42-.94-.23h-.02l-.68-.22v-3.38Zm.09,7.32l.07,.02,.26,.07,.46,.14s.04,.01,.07,.01h.08l.84,.24v.04l.47,2.91-.17-.05-.14-.05-1.4-.48-.56-2.85h.02Zm1.09-.24l-.28-2.92,1.72,.43,.21,2.88-1.65-.39Zm1.84,1.15h.05s.03,.02,.05,.02l.91,.21,.41,3-1.56-.54h0l-.23-1.46-.21-1.35,.59,.12Zm-.46,3.11h.02l1.71,.59,.55,2.3-1.14-.15-.4-.09-.84-2.68,.1,.03Zm2-2.75l2.47,.65,.36,2.85s-.03-.01-.04-.01l-2.38-.47-.41-3.02Zm2.53,3.94l.53,2.74-1.35-.24h-.07l-.18-.04-.5-.09-.67-2.8,2.24,.43Zm.43-3.37l1,.17,.22,.02,1.63,.17,.52,2.93-.41-.04s-.08-.02-.13-.01l-2.45-.25-.38-2.99Zm3.63,3.82h.05l2.14,.26h0l.43,2.93-1.36-.19s-.11,0-.15,.03l-.88-.14-.65-2.94,.42,.05Zm.03,3.37l1.02,.16,.67,2.52-1.77-.31-.73-2.5,.71,.12s.07,.01,.1,.01Zm1.54,.18l1.34,.18,2.35,.32,.66,2.47-.72-.07s-.05-.01-.08-.01l-2.86-.31-.69-2.58Zm3.37,3.37l.77,2.12-2.46-.25c-.46-.74-.85-1.47-1.11-2.17l2.8,.3Zm1.93,2.74l.86,1.77-2.88-.39c-.45-.57-.87-1.14-1.26-1.72l3.28,.34Zm1.13,2.31l.73,1.38-2.18-.29c-.06-.07-.12-.14-.19-.22-.01,0-.01,0-.02-.02-.34-.39-.69-.79-1.04-1.21l2.7,.36Zm-.56-2.29l2.12,.06s-.02,.12,.01,.17l.89,1.62-2.15-.04-.87-1.81Zm2.62,.07l3.14,.09h1.2l.21,1.69h-3.58l-.97-1.78Zm4.84,2.53h1.29v1.42l-1.29-.03h-.1l-1.85-.04-.52-1.35h2.47Zm.25-.5l-.25-1.94h3.51l-.17,1.94h-3.09Zm2-2.44v-2.04h3.32l.05,2.04h-3.37Zm1.76,.5h2.19l1.3-.06-.51,1.64-1.67,.09s-.03,.01-.05,.01h-.07l-1.36,.21,.17-1.89Zm1.55,2.16l3.52-.18-.7,1.54-2.82,.21v-1.57Zm1.96-.6l.5-1.65h.01l1.34-.05s.02,0,.03-.01h.07l1.65-.19-.54,1.8h-1.31l-1.75,.1Zm4.14-1.97l3.08-.39-.94,1.81-2.68,.4,.54-1.82Zm3.69-.49l.76-.17s.03,0,.05-.01c.01,0,.02-.01,.03-.01h.02l2.03-.48-1.82,2.06v.02h-.01s-.01,.01-.01,.01l-2,.4,.95-1.82Zm1.16-.77l.79-2.12,2.3-.41-.83,1.99-2.26,.54Zm3.06-3.03l-2.46,.44s-.05,0-.07,0l-.56,.09,.48-2.32,.2-.03h.08l2.73-.55-.4,2.36Zm-2.04-2.39l.82-2.99,2.42-.52-.7,3.01-2.54,.5Zm2.96-.08l2.05-.45-.83,2.39h-.01l-1.6,.41,.39-2.35Zm2.63-.59l1.95-.68-.8,2.4-1.22,.4s-.03,0-.05,0c-.02,.01-.05,.02-.08,.03l-.62,.19,.82-2.35Zm.94-3.92l.61-2.85s.03-.01,.04-.01l1.88-.51-.6,2.78-1.93,.59Zm3.08-3.54l1.61-.59-.72,2.79-1.48,.56,.59-2.76Zm.34-.66l.28-3.05h0l1.42-.52-.31,3.06-1.4,.51Zm1.45-4.01l-.22-3.18h.02l1.49-.6,.02,3.3-.87,.32-.44,.16Zm.79,.25h0l.8-.3,.09-.03,.4-.15-.38,3.08-1.23,.46,.32-3.06Zm1.02-.91l-.02-3.31,1.01-.4,.14,3.28-.65,.25-.48,.18Zm-.19-11.1l.69-.28h.01l.72,3.15-.64,.25-.78-3.12Zm-.56-.31l-1.12-3.03,.95-.27,1.27,2.85-1.1,.45Zm-1.46-6.68l.6-.14,1.39,2.78-.45,.13-1.54-2.77Zm-.38-.43l-1.53-2.76,.72-.1,1.5,2.7-.69,.16Zm-1.34-3.29l-1.74-2.51,.59-.07,1.42,2.54-.27,.04Zm-.54,.08l-.95,.21-.04-.05s-.02-.05-.04-.07l-1.63-2.41,.95-.14,1.71,2.46Zm-2.44-2.86l-1.71-2.14,.58-.11,1.84,2.15-.71,.1Zm-2.22-2.56h-.02s-.02,.02-.03,.02h-.01s-.09,.06-.11,.11l-.06-.06-.37-.41c.05-.31,.12-.61,.18-.89l1.22,1.09-.8,.14Zm-.32,.6s.03,0,.05-.01c.02,0,.04,0,.06-.01l.17-.05,1.67,2.09-.1,.04s-.08,.02-.11,.04l-1.17,.38-1.1-1.58c.03-.27,.05-.53,.09-.77l.44-.13Zm-.07,2.44l-.57,.02c.01-.27,.03-.53,.05-.78l.52,.76Zm.25,6.65l-2.72-.03-1.03-2.56,2.66-.24,1.09,2.83Zm-3.93-3.07l-.89-2.7,2.3-.15,1.21,2.6-2.62,.25Zm2.57-1.55l-.68-1.46,.65-.02c.02,.41,.03,.85,.03,1.31v.17Zm-1.06-4.52l-1.58,.04h-.45l-1.6-1.99h1.9l1.73,1.95Zm-4.14-2.45h-.02l-1.88,.15-1.3-1.79h2.17l1.63,1.64h-.6Zm-4.11-2.14l-1.26-1.36,2.21-.15,1.59,1.51h-2.54Zm-1.79-1.83h-.03l-1.54-.06s-.01,0-.01-.02l-.74-1.01h2.21l1.15,1.02-1.04,.07Zm-2.2-.09l-.75-.03-3.08-.06-.24-.76,3.33-.14,.74,.99Zm-.91,.47l.72,1.45h-3.97l-.15-1.51,3.4,.06Zm-1.54,1.95l.63,2.01h-3.77l.09-2.01h3.05Zm-6.04-2.33h-3.08l1-1.28,2.65,.21-.57,1.07Zm-3.71-.03l-2.93-.08,1.84-1.46,1.64,.21h.03l.45,.04-1.03,1.29Zm-2.81,.41l-1.08,1.65-2.77-.17,1.59-1.55h.01l2.25,.07Zm-1.47,2.13l-1.4,1.62-2.79-.08,1.33-1.71h.01l2.85,.17Zm-4.81,1.51l-1.2-.18,1.31-1.34,.03-.03s.05-.06,.06-.09c.01-.02,.01-.03,.01-.05h1.12l-1.33,1.69Zm-.37,.46l-1.85,2.22-1.2-.09,1.74-2.32,1.31,.19Zm-3.73,2.2l-1.06-.07,1.7-2.58,1.21,.18-1.85,2.47Zm.62,.43l1.51,.12-1.19,2.22s-.03,.08-.03,.12l-1.74-.05,1.45-2.41Zm-.54,2.94l-1.12,2.54-.5-.03-.95-.05,1.2-2.5h.02l1.35,.04Zm-1.85,2.99c-.44,.8-.83,1.85-1.19,3.01-.68-.1-1.24-.21-1.62-.34,.36-1.02,.76-1.96,1.19-2.76l1.62,.09Zm-3.32,2.6l-1.49-.12,1.39-2.81,1.3,.13c-.44,.82-.84,1.78-1.2,2.8Zm-1.99-.24l-.53-.15c.39-.89,.85-1.84,1.39-2.84l.53,.18-1.39,2.81Zm-.19,.47l-.84,2.86-.75-.15c.27-.85,.61-1.82,1.05-2.87l.54,.16Zm-.97,3.34l-.77,3.28-.73-.19c.07-.45,.25-1.6,.73-3.24l.77,.15Zm-.86,3.78l-.36,3.08-.52-.18s-.01-.01-.02-.01l-.44-.2,.62-2.89,.72,.2Zm-.2,6.79l-.27-.07s.04-.02,.07-.02h.01c.07,0,.14,.03,.19,.09Zm-1.09,.2l.05,.02s.01,0,.02,0l.57,.17-.04,3.12-.61-.27s-.04-.02-.06-.02l-.36-.16,.06-3.03,.37,.16Zm1.48,10.09l-.7-.29s0-.04-.01-.05l-.69-2.74,.78,.29h0l.62,2.79Zm-.92-3.42l-.38-2.99,1.06,.46,.35,2.9-1.03-.37Zm.54-3.14l.04-3.19,.36,.11h.07l.85,.21v3.34l-.75-.22h-.04l-.02-.02-.51-.23Zm1.34,7.49l.84,2.69-.62-.18-1.05-2.85,.83,.34Zm.61,.28l.08,.03s.08,.08,.14,.1l1.28,.39,.24,.08h0l.86,2.74h0l-.16-.04h-.05l-1.51-.46-.04-.12s-.01-.03-.01-.04l-.84-2.68Zm1.08,3.42l1.28,2.4-.75-.22-.94-2.3,.41,.12Zm.7,.24l.38,.08,.11,.03h.07l.46,.12h0l.27,.06,.44,.1,.28,.06,1.11,2.5-1.84-.53-1.29-2.42Zm2.88,1.11l.48,.07,.76,.13h.02l1.08,2.52-1.42-.53s0-.05-.01-.07l-.91-2.12Zm5.13,3.71h-.08v-.02l.08,.02Zm-1.31-.25h.04l.76,.15,.31,.07c.15,.28,.59,1.04,1.22,2.05l-1.95-.36c-.14-.55-.27-1.18-.38-1.9h0Zm1.75,.32h.09l.08,.03,.32,.06h.05l1.82,.32c.23,.68,.58,1.4,1,2.13l-2.09-.47c-.58-.89-1.02-1.63-1.27-2.07Zm3.73,3.13c.35,.55,.74,1.11,1.15,1.65l-1.98-.43h-.07c-.42-.59-.81-1.16-1.17-1.68l2.07,.46Zm1.62,2.25c.31,.39,.63,.78,.95,1.16l-1.97-.28c-.36-.44-.72-.88-1.05-1.32l2.07,.44Zm1.46,1.74c.07,.08,.15,.16,.23,.24,.31,.35,.62,.69,.92,1.01l-1.98-.32c-.39-.38-.78-.79-1.15-1.21l1.98,.28Zm1.05,.41l2.1,.27,.23,.03,.77,.05,.49,1.05-2.5-.27s-.05-.05-.08-.07c-.01-.02-.02-.03-.04-.05-.3-.31-.63-.65-.97-1.01Zm2.37-.2h-.1l-.76-1.44,2.3,.03h.94s.01,.06,.02,.09l.58,1.51-2.98-.19Zm3.43,.72h.02s.04-.01,.05-.03h.05l.84,.02,.63,1.11-3.21-.16-.51-1.08,2.13,.14Zm1.55,.01h0l2.12,.02h0l1.3,.02v1.07h-2.79l-.63-1.11Zm2.27-.48v-1.41h3.27v1.34l-1.87,.09h-.01l-1.39-.02Zm1.65,.51l3.59-.16-.35,.99-3.24,.24v-1.07Zm.94,1.49l2.49-.17h.02l1.24-.13-.33,.55-3.63,.23,.21-.48Zm2.85-.72l.37-1.05,.95-.07h.02l2.05-.16-.64,.99-1.3,.14s-.07-.01-.1,0l-1.35,.15Zm1.72-1.65l.68-1.51h1.17l1.76-.27-.82,1.56h-.01l-2.78,.22Zm2.14,.55s.01,0,.01-.01h.01l2.42-.53-.37,.78-1.95,.36h-.01l-.55,.1,.44-.7Zm5.73-3.15h0l2.15-.38-1.43,1.45-.03,.03-.16,.14-1.86,.35,1.32-1.59Zm.45-.59l1.82-2.06h-.02s0-.01,.02-.01h.01l2.08-.49-1.61,2.17-2.3,.39Zm2.1-2.64l.83-1.98,1.76-.44s.01,0,.02-.01c.02,0,.04-.01,.06-.02l.55-.17-.97,2.09-2.25,.53Zm3.86-2.83l1.31-.42h.02l.11-.04-1.09,2.16-1.32,.41,.97-2.11Zm2.1-.66l.98-.3,.24-.11-1.51,2.21-.02,.04-.76,.27,1.07-2.11Zm.83-.96l-1.11,.52h-.01l-.18,.06,.75-2.26,.03-.15h.01l1.22-.37-.71,2.2Zm1.29-2.38l.16-.05s.04-.01,.05-.02l.91-.56-.74,2.42-.67,.31h-.02l-.43,.21,.74-2.31Zm.19-.65l.8-2.82h0l1.09-.48-.74,2.6-1.15,.7Zm.97-3.44l.71-2.75,1.16-.43-.77,2.7-1.1,.48Zm2.46-3.41l.66-.34-.63,2.52-.05,.02-.73,.4,.75-2.6Zm.1-.61l.37-3.03,.64-.24-.31,2.92-.7,.35Zm.96-7.7l-.68-3.05,.62-.25,.54,3.03-.48,.27Zm1.09-4.39l-.31,.22-.47,.19-.73-3.2,.81-.61c.29,1.11,.53,2.25,.7,3.4Zm-.84-3.92l-.86,.64-1.22-2.75,.64-.2s.03-.01,.04-.01c.05-.03,.08-.06,.11-.1l.37-.34c.35,.9,.66,1.83,.92,2.76Zm-1.12-3.27l-.31,.3-1.39-2.77,.5-.16c.44,.86,.84,1.74,1.2,2.63Zm-1.44-3.08l-.54,.18-1.44-2.58,.48-.14c.54,.82,1.04,1.67,1.5,2.54Zm-3.59-5.36c.65,.77,1.24,1.57,1.8,2.39l-.43,.12-1.4-2.51h.03Zm-.38-.46l-.77,.09-1.87-2.19,.61-.07c.71,.7,1.39,1.42,2.03,2.17Zm-2.52-2.61l-.39,.04-1.61-1.43c.03-.1,.05-.19,.08-.28,.67,.53,1.3,1.07,1.92,1.67Zm-5.51-6.28c.97-.81,2.06-2.55,2.54-6.23,.48,3.68,1.57,5.42,2.54,6.23,.29,.24,.58,.41,.84,.52-.26,.12-.55,.29-.84,.53-.52,.43-1.07,1.13-1.54,2.25-.07,.16-.14,.32-.2,.51-.06,.14-.11,.3-.16,.47l.02,.03h-.03c-.03,.06-.05,.13-.07,.21-.05,.17-.1,.35-.15,.54-.06,.25-.12,.51-.17,.8-.05,.2-.09,.41-.12,.63-.03,.16-.06,.33-.08,.51-.01,.07-.03,.16-.04,.24-.01-.07-.02-.15-.04-.22-.04-.3-.09-.58-.14-.85h0c-.06-.36-.13-.69-.21-1-.04-.17-.08-.33-.12-.48-.13-.47-.28-.89-.43-1.26-.06-.14-.12-.28-.18-.4-.44-.96-.95-1.58-1.42-1.98-.1-.08-.19-.15-.29-.22l-.3-.18-.24-.12h0c.26-.13,.54-.29,.83-.53Zm.09,4.5l-.69,.08c-.09,.01-.17,.08-.21,.17h-.8l-1.76-1.76,1.63-.16,1.83,1.67Zm-1.77-2.18h-.02s-.04,.02-.05,.03h-.01v-.02l-2.09,.2-1.57-1.49,1.5-.18h.01l2.14,1.47h.09Zm-1.83-2l-.35,.02h-.01c0-.05-.05-.1-.1-.13l-.61-.34c.36,.14,.72,.29,1.07,.45Zm-3.6-1.31l-.54,.05h-.01l-.36-.33c.32,.09,.6,.18,.91,.28Zm.72,.42l1.79,1-1.37,.16h-.02l-1.09,.07-1.15-1.03,1.84-.2Zm-3.12-1.06c.14,.03,.27,.06,.41,.09h.02l.76,.67-.47,.06h-1.98l-.66-.82h1.92Zm-2.83-.47l-1.01,.08v-.2c.33,.03,.67,.07,1.01,.12Zm-1.28,.6h.06s0,0,.02-.01l1.47-.11,.65,.81h-.22l-3.36,.14,.28-.74,1.06-.09h.04Zm-1.93-.74s.03-.08,.02-.11c.56,0,1.11,.04,1.67,.08v.29l-1,.09h-.03l-.79-.04,.13-.31Zm-2.1,.75l2.4,.08-.28,.76h-2.62l.5-.84Zm-1.43-.75l-.31,.23-.96-.09c.42-.06,.85-.11,1.27-.14Zm-.32,.73h1.16l-.43,.74-2.95-.23s-.06-.01-.09-.01l-.29-.02,.76-.65,1.84,.17Zm-3-.28h.01l.45,.04-.77,.66-1.66-.21h-.09c.68-.19,1.36-.35,2.06-.49Zm-3.3,.83h.02l.68,.09-1.77,1.4s-.06,.07-.07,.11l-1.48-.04s-.04,0-.06,0l-.93-.2c1.17-.53,2.37-.98,3.61-1.35Zm-3.18,1.94l-1.68,1.63h-1.62l2.43-1.81,.87,.18Zm-2.51,.42l-1.56,1.16-.28-.11c.6-.37,1.21-.72,1.84-1.05Zm-2.37,1.39h.02l.32,.13h.01l.31,.12h.03l.14,.07,.15,.06-1.27,1.29s-.04,.05-.04,.08h-.01l-1.77-.26c.68-.52,1.38-1.02,2.11-1.49Zm-2.63,1.93h.08l-1.66,2.54-.61-.06c.66-.82,1.4-1.65,2.19-2.48Zm-1.36,3.16l1.34,.09-1.39,2.31-1.66-.14,1.71-2.26Zm-2.04,2.73h.06l1.5,.15-1.17,2.45-1.91-.2,1.51-2.4h.01Zm-.51-.15l-1.54,2.46-.53-.17c.44-.8,.95-1.63,1.51-2.48l.56,.19Zm-1.34-.45l.29,.1c-.56,.85-1.06,1.68-1.51,2.48l-.49-.16c.53-.83,1.1-1.64,1.71-2.42Zm-1.99,2.86l.53,.17c-.55,1-1.01,1.95-1.4,2.85l-.69-.2c.47-.97,.99-1.91,1.56-2.82Zm-1.78,3.28l.72,.21c-.45,1.07-.8,2.05-1.06,2.91l-.87-.17c.35-1.01,.76-1.99,1.21-2.95Zm-1.37,3.42l.88,.18c-.45,1.53-.64,2.64-.72,3.16l-1-.39c.24-1,.52-1.99,.84-2.95Zm-1.4,14.18l1.03,.45,.4,3.03-.17-.05s-.03-.02-.04-.02l-.06-.02s-.02,0-.03-.01l-.57-.21c-.24-1.04-.42-2.09-.56-3.17Zm1.54,6.55c-.32-.91-.6-1.85-.84-2.81l.19,.07,.71,2.77-.06-.03Zm1.57,3.72c-.5-1-.95-2.02-1.34-3.08l.61,.24s0,.02,0,.03l1.07,2.91-.33-.1h-.01Zm1.94,3.35c-.59-.88-1.13-1.79-1.62-2.74l.35,.1,.62,.18s0,.03,.01,.05l1.02,2.52-.38-.11Zm2.23,2.98c-.64-.74-1.23-1.52-1.79-2.33l1.23,.36s.01,.05,.02,.07l1.1,2.08-.56-.18Zm.63,.73l.28,.09-.04-.06s.05,.05,.07,.07h-.03l.62,.87c-.32-.32-.61-.64-.9-.97Zm.61-.33l.03,.06s-.05-.05-.08-.07h.05l-1.13-2.11,1.32,.37h.01l1.01,2.14-1.21-.39Zm.9-1.42l2.04,.76c.09,.27,.19,.52,.29,.77-.05,.31-.11,.6-.18,.88l-1.2-.39-.95-2.02Zm1.39,2.69l.64,.21c-.04,.19-.09,.36-.14,.52l-.5-.73Zm.07,1.91h0s-.02,.04-.02,.05h-.01s-.07-.05-.1-.09l.13,.04Zm4.88,2.85s-.01,0-.02,0c-.16,.06-.33,.15-.5,.27-.03,.02-.06,.04-.1,.07-.07,.05-.14,.1-.21,.16-.03,.03-.06,.05-.09,.08-.15,.13-.3,.28-.45,.46-.81,.97-1.62,2.68-2.01,5.69-.48-3.68-1.57-5.42-2.54-6.23-.3-.25-.59-.41-.85-.53,.27-.11,.56-.28,.85-.52,.3-.25,.6-.58,.9-1.03,.17-.26,.34-.56,.5-.9,.04-.07,.07-.14,.1-.22,.04-.08,.07-.15,.11-.24h0c.03-.08,.05-.14,.08-.22,.04-.11,.09-.24,.13-.37,.1-.27,.18-.56,.27-.88,.04-.15,.08-.31,.12-.48,0-.08,.03-.16,.05-.24,.06-.28,.12-.58,.16-.89,.04-.19,.07-.38,.09-.58h0l.03-.16c.01,.06,.02,.11,.03,.16h0c.07,.54,.16,1.03,.26,1.48,.03,.15,.06,.29,.1,.43,0,.02,0,.03,.01,.05t.01,.02c.03,.16,.07,.32,.12,.46,.12,.46,.26,.86,.41,1.22,.02,.05,.04,.1,.06,.14,.08,.19,.16,.37,.24,.53,.29,.55,.59,.98,.89,1.31,.14,.16,.28,.29,.42,.41,.06,.05,.13,.1,.19,.15,.18,.13,.35,.23,.52,.31,.01,0,.02,.01,.02,.01h.01s.03,.02,.05,.03l.06,.03s-.01,0-.02,.01Zm-.31-.27h0Zm.38,.78c.1-.05,.2-.09,.3-.12,.11,.1,.22,.2,.34,.3l-.64-.18Zm-1.52-2.91h0c-.05-.06-.1-.13-.16-.2l-.06-.09-.32-.47s-.01-.02-.01-.03c-.1-.26-.2-.54-.3-.85l2.17,.4c.34,.52,.73,1.09,1.15,1.69l-2.46-.45Zm2.75,3.71l.31,.14h.04c.07,.08,.15,.13,.22,.19,0,0,0,.01,.01,.01,.04,.02,.07,.05,.11,.08,.01,0,.02,.01,.03,.01,.06,.05,.11,.09,.16,.13-.37-.18-.58-.36-.88-.56Zm.92-.03c-.19-.14-.37-.28-.56-.44l-.04-.03-.58-.55c.12,0,.19,.02,.2,.02,.09,.02,.19-.02,.24-.1l1.48,.37c.32,.39,.66,.76,1.01,1.13l-1.72-.39h-.03Zm2.16,1.39c-.34-.18-.68-.39-1.03-.63l1.27,.3c.15,.14,.3,.29,.45,.42l-.69-.09Zm1.62,.23c-.16-.13-.31-.26-.47-.41l1.9,.3c.22,.21,.42,.41,.61,.6l-2.04-.49Zm2.42,.16l2.2,.23,.33,.62-2.02-.34c-.15-.16-.33-.33-.51-.51Zm1.4,1.36c-.07-.07-.16-.16-.26-.24l1.67,.28,.11,.22c-.51-.08-1.02-.16-1.52-.26Zm2.12,.34l-.21-.42,2.23,.14,.04,.48c-.69-.04-1.38-.11-2.06-.2Zm-.46-.94h-.01l-.26-.49,3.38,.17h.42v.49h-.82l-2.71-.17Zm6.48,1.16c-.62,.03-1.25,.05-1.88,.05-.53,0-1.05-.01-1.57-.04l-.05-.5h3.61l-.11,.49Zm.22-.99h-2.67v-.49h2.31l.6-.05-.24,.54Zm3.08,.62c-.91,.15-1.84,.26-2.78,.33l.12-.54,2.85-.18-.19,.39Zm.6-.1l.16-.33,.53-.03h.03l1.81-.21c-.83,.22-1.67,.41-2.53,.57Zm3.02-1.13l-1.85,.21,.32-.55,1.38-.15h.07l.47-.1-.39,.59Zm2.47-.6l-1.76,.43,.37-.55,1.95-.35s.05,0,.07,0l.49-.11-1.12,.59Zm2.72-1.44l-1.7,.36,.43-.91,.3-.06,.33-.06h.08s.03-.02,.04-.02l1.67-.32-1.14,1.01h-.01Zm1.39-.39l-.28,.08,1.01-.9s.05-.04,.07-.06l.16-.14,.63-.1-1.59,1.12Zm1.58-1.63l1.4-1.42,.99-.3-1.46,1.57-.93,.15Zm1.85-.41l1.49-1.6,.84-.25c-.74,.66-1.52,1.28-2.33,1.85Zm2.89-2.54l-.88,.27,1.6-2.13,.65-.24-1.36,2.1h-.01Zm1.33-1.11l.84-1.29,.22-.08,.28-.11c-.42,.51-.87,1.01-1.34,1.48Zm2.02-2.29l-.69,.27,1.59-2.34,.71-.32s.02-.01,.02-.01l.18-.09c-.56,.87-1.16,1.69-1.81,2.49Zm3.13-4.7c-.25,.47-.51,.91-.78,1.36h0l-.43,.23,.76-2.5,.79-.43-.34,1.34Zm.39-1.93l-.65,.35,.73-2.53,.78-.44-.74,2.56-.12,.06Zm.74-.35h-.02l.74-2.55,.33-.12c-.3,.91-.65,1.8-1.05,2.67Zm2.03-6.14c-.21,.98-.47,1.93-.78,2.87h0l-.38,.14,.66-2.63,.03-.12,.06-.57,.3-2.82,.14-.13-.1,2.65v.03l.23-.17c.15-.78,.27-1.57,.36-2.37l-.08,2.17c.1-.03,.22,0,.28,.09,.08,.11,.06,.27-.05,.35l-.67,.51Z"></path><path xmlns="http://www.w3.org/2000/svg" d="M49.05,9.83c-.06,0-.13-.02-.18-.07l-2.2-2.2c-.1-.1-.1-.26,0-.35s.26-.1,.35,0l2.2,2.2c.1,.1,.1,.26,0,.35-.05,.05-.11,.07-.18,.07Z"></path><path xmlns="http://www.w3.org/2000/svg" d="M54.87,9.83c-.06,0-.13-.02-.18-.07-.1-.1-.1-.26,0-.35l2.2-2.2c.1-.1,.26-.1,.35,0s.1,.26,0,.35l-2.2,2.2s-.11,.07-.18,.07Z"></path><path xmlns="http://www.w3.org/2000/svg" d="M57.07,17.15c-.06,0-.13-.02-.18-.07l-2.2-2.2c-.1-.1-.1-.26,0-.35s.26-.1,.35,0l2.2,2.2c.1,.1,.1,.26,0,.35-.05,.05-.11,.07-.18,.07Z"></path><path xmlns="http://www.w3.org/2000/svg" d="M8.53,73.4c-.06,0-.13-.02-.18-.07-.1-.1-.1-.26,0-.35l2.2-2.2c.1-.1,.26-.1,.35,0s.1,.26,0,.35l-2.2,2.2s-.11,.07-.18,.07Z"></path><path xmlns="http://www.w3.org/2000/svg" d="M18.74,73.4c-.06,0-.13-.02-.18-.07l-2.2-2.2c-.1-.1-.1-.26,0-.35s.26-.1,.35,0l2.2,2.2c.1,.1,.1,.26,0,.35-.05,.05-.11,.07-.18,.07Z"></path></g><g id="SvgjsG1849" featurekey="Fok8m0-0" transform="matrix(5.127153179803511,0,0,5.127153179803511,116.92370735867274,-32.93847079777396)" fill="url(#SvgjsLinearGradient1858)"><path d="M7.82 17.259999999999998 c0 1.74 -1.68 2.98 -3.18 2.98 c-1.34 0 -2.08 -0.7 -2.68 -0.7 c-0.28 0 -0.44 0.16 -0.46 0.44 l-0.64 0 l-0.24 -2.72 l0.32 0 c0.26 0 0.48 0.04 0.56 0.32 c0.3 1.1 1.82 2.02 2.88 2.02 c0.92 0 1.5 -0.62 1.5 -1.46 c0 -1.08 -0.94 -1.54 -2.32 -2.24 c-1.4 -0.7 -2.96 -1.62 -2.96 -3.38 c0 -1.52 1.3 -2.7 3.02 -2.7 c1.32 0 1.76 0.56 2.28 0.56 c0.26 0 0.42 -0.14 0.48 -0.4 l0.66 0 l0.18 2.62 l-0.34 0 c-0.26 0 -0.4 -0.08 -0.52 -0.32 c-0.5 -1.12 -1.52 -1.86 -2.44 -1.86 s-1.46 0.66 -1.46 1.42 c0 0.94 0.7 1.4 1.84 1.96 c1.26 0.6 3.52 1.52 3.52 3.46 z M14.86 9.82 c2.06 0 4.2 1.84 4.2 5.3 c0 3.26 -2.36 5.14 -4.54 5.14 c-1.16 0 -1.92 -0.52 -2.42 -1.04 l0 2.48 c0 0.72 0.44 0.88 1.42 0.76 l0 0.7 c-1.96 0.32 -3.1 1.14 -3.76 1.14 c-0.28 0 -0.44 -0.12 -0.44 -0.36 c0 -0.46 0.52 -0.28 0.52 -1.9 l0 -9.8 c0 -0.7 -0.44 -0.86 -1.22 -0.76 l0 -0.64 c1.76 -0.32 2.54 -1.1 3 -1.1 c0.34 0 0.48 0.18 0.48 0.58 l0 0.74 c0.54 -0.6 1.42 -1.24 2.76 -1.24 z M14.52 19.62 c1.52 0 2.12 -1.44 2.12 -3.82 c0 -3.1 -0.8 -5.26 -2.34 -5.26 c-0.94 0 -1.72 0.64 -2.2 1.28 l0 5.36 c0.1 1.16 1.2 2.44 2.42 2.44 z M28.380000000000003 17.8 c0 0.72 0.44 0.86 1.22 0.74 l0 0.7 c-1.76 0.42 -2.5 1 -3 1 c-0.34 0 -0.52 -0.18 -0.5 -0.6 l0.12 -1.5 c-0.44 0.96 -1.38 2.1 -3.1 2.1 c-1.42 0 -2.96 -0.7 -2.96 -2.54 s1.26 -3.06 5.94 -4.02 l0 -0.92 c0 -1.68 -0.12 -2.34 -1.02 -2.34 c-2.92 0 -1.38 3.02 -3.26 3.02 c-0.68 0 -1 -0.4 -1 -0.94 c0 -1.48 1.9 -2.7 4.34 -2.7 c2.26 0 3.22 0.68 3.22 3.08 l0 4.92 z M23.94 19.26 c1.24 0 1.96 -1.46 2.16 -2.12 l0 -2.84 c-3.32 0.72 -3.6 2.36 -3.6 3.24 c0 1.02 0.54 1.72 1.44 1.72 z M38.44 17.8 c0.24 0 0.36 0.2 0.22 0.46 c-0.56 1.12 -1.58 1.94 -3.3 1.94 c-2.64 0 -4.86 -1.88 -4.86 -5.26 c0 -3.22 2.2 -5.12 4.64 -5.12 c2.2 0 3.68 1.22 3.7 2.6 c0 0.46 -0.36 0.98 -1.08 0.98 c-0.66 0 -1.08 -0.42 -1.04 -0.94 c0.04 -0.98 -0.2 -1.96 -1.36 -1.96 c-1.58 0 -2.4 1.64 -2.4 4.3 c0 2.78 1 4.72 2.58 4.72 c1.34 0 1.98 -0.76 2.18 -1.5 c0.04 -0.16 0.14 -0.22 0.26 -0.22 l0.46 0 z M44.68 9.82 c2.3 0 4.68 1.72 4.68 5.08 c0 3.46 -2.38 5.3 -4.64 5.3 c-2.3 0 -4.68 -1.84 -4.68 -5.14 c0 -3.52 2.38 -5.24 4.64 -5.24 z M46.9 15.48 c0 -2.98 -0.96 -4.98 -2.5 -4.98 c-1.22 0 -1.9 1.3 -1.9 3.98 c0 3 0.96 5.04 2.48 5.04 c1.24 0 1.92 -1.34 1.92 -4.04 z"></path></g><g id="SvgjsG1850" featurekey="TflPBd-0" transform="matrix(0.17727286940656978,0,0,0.17727286940656978,119.70573061410703,101.81209072630753)" fill="url(#SvgjsLinearGradient1862)"><path d="M12.18 20.3 c-0.24 0 -0.44666 -0.08666 -0.62 -0.26 s-0.26 -0.38 -0.26 -0.62 l0 -6.78 l-7.86 0 l0 6.78 c0 0.24 -0.08666 0.44666 -0.26 0.62 s-0.38 0.26 -0.62 0.26 c-0.25334 0 -0.46668 -0.08666 -0.64002 -0.26 s-0.26 -0.38 -0.26 -0.62 l0 -14.02 c0 -0.24 0.08666 -0.44666 0.26 -0.62 s0.38668 -0.26 0.64002 -0.26 c0.24 0 0.44666 0.08666 0.62 0.26 s0.26 0.38 0.26 0.62 l0 5.46 l7.86 0 l0 -5.46 c0 -0.24 0.08666 -0.44666 0.26 -0.62 s0.38 -0.26 0.62 -0.26 c0.25334 0 0.46668 0.08666 0.64002 0.26 s0.26 0.38 0.26 0.62 l0 14.02 c0 0.24 -0.08666 0.44666 -0.26 0.62 s-0.38668 0.26 -0.64002 0.26 z M29.598 20.3 c-0.25334 0 -0.46668 -0.08666 -0.64002 -0.26 s-0.26 -0.38 -0.26 -0.62 l0 -14.02 c0 -0.24 0.08666 -0.44666 0.26 -0.62 s0.38668 -0.26 0.64002 -0.26 c0.24 0 0.44666 0.08666 0.62 0.26 s0.26 0.38 0.26 0.62 l0 14.02 c0 0.24 -0.08666 0.44666 -0.26 0.62 s-0.38 0.26 -0.62 0.26 z M53.696 6.279999999999999 l-3.24 0 l0 13.14 c0 0.24 -0.08666 0.44666 -0.26 0.62 s-0.38 0.26 -0.62 0.26 c-0.25334 0 -0.46668 -0.08666 -0.64002 -0.26 s-0.26 -0.38 -0.26 -0.62 l0 -13.14 l-3.24 0 c-0.24 0 -0.44666 -0.08334 -0.62 -0.25 s-0.26 -0.37666 -0.26 -0.63 c0 -0.24 0.08666 -0.44666 0.26 -0.62 s0.38 -0.26 0.62 -0.26 l8.26 0 c0.24 0 0.44666 0.08666 0.62 0.26 s0.26 0.38 0.26 0.62 c0 0.25334 -0.08666 0.46334 -0.26 0.63 s-0.38 0.25 -0.62 0.25 z M76.254 6.279999999999999 l-3.24 0 l0 13.14 c0 0.24 -0.08666 0.44666 -0.26 0.62 s-0.38 0.26 -0.62 0.26 c-0.25334 0 -0.46668 -0.08666 -0.64002 -0.26 s-0.26 -0.38 -0.26 -0.62 l0 -13.14 l-3.24 0 c-0.24 0 -0.44666 -0.08334 -0.62 -0.25 s-0.26 -0.37666 -0.26 -0.63 c0 -0.24 0.08666 -0.44666 0.26 -0.62 s0.38 -0.26 0.62 -0.26 l8.26 0 c0.24 0 0.44666 0.08666 0.62 0.26 s0.26 0.38 0.26 0.62 c0 0.25334 -0.08666 0.46334 -0.26 0.63 s-0.38 0.25 -0.62 0.25 z M103.172 20.22 c-0.10666 0.05334 -0.21992 0.08 -0.33992 0.08 c-0.17334 0 -0.33668 -0.04666 -0.49002 -0.14 s-0.26334 -0.22668 -0.33 -0.40002 l-1.58 -3.72 l-7.26 0 l-1.58 3.72 c-0.09334 0.22666 -0.25334 0.38666 -0.48 0.48 s-0.45332 0.08668 -0.67998 -0.01998 c-0.22666 -0.09334 -0.38666 -0.25334 -0.48 -0.48 s-0.08668 -0.45332 0.01998 -0.67998 l1.8 -4.26 l4.22 -9.88 c0.06666 -0.17334 0.17332 -0.30668 0.31998 -0.40002 s0.31332 -0.14 0.49998 -0.14 c0.17334 0 0.33334 0.04666 0.48 0.14 s0.25332 0.22668 0.31998 0.40002 c1.0133 2.3734 2.02 4.73 3.02 7.07 s2.0066 4.6966 3.02 7.07 c0.09334 0.22666 0.09334 0.45332 0 0.67998 s-0.25334 0.38666 -0.48 0.48 z M96.812 7.539999999999999 l-2.88 6.72 l5.74 0 z M145.108 6.279999999999999 l-6 0 l0 5.18 l5.06 0 c0.24 0 0.44666 0.08666 0.62 0.26 s0.26 0.38 0.26 0.62 c0 0.25334 -0.08666 0.46334 -0.26 0.63 s-0.38 0.25 -0.62 0.25 l-5.06 0 l0 6.2 c0 0.24 -0.08666 0.44666 -0.26 0.62 s-0.38 0.26 -0.62 0.26 c-0.25334 0 -0.46668 -0.08666 -0.64002 -0.26 s-0.26 -0.38 -0.26 -0.62 l0 -14.02 c0 -0.24 0.08666 -0.44666 0.26 -0.62 s0.38668 -0.26 0.64002 -0.26 l6.88 0 c0.25334 0 0.46668 0.08666 0.64002 0.26 s0.26 0.38 0.26 0.62 c0 0.25334 -0.08666 0.46334 -0.26 0.63 s-0.38668 0.25 -0.64002 0.25 z M167.64600000000002 20.3 l-6.88 -0.000019531 c-0.25334 0 -0.46668 -0.08666 -0.64002 -0.26 s-0.26 -0.38 -0.26 -0.62 l0 -0.04 l0 -0.04 l0 -13.94 c0 -0.24 0.08666 -0.44666 0.26 -0.62 s0.38668 -0.26 0.64002 -0.26 l6.88 0 c0.25334 0 0.46668 0.08666 0.64002 0.26 s0.26 0.38 0.26 0.62 c0 0.25334 -0.08666 0.46334 -0.26 0.63 s-0.38668 0.25 -0.64002 0.25 l-6 0 l0 5.1 l5.06 0 c0.24 0 0.44666 0.08334 0.62 0.25 s0.26 0.37666 0.26 0.63 c0 0.24 -0.08666 0.44666 -0.26 0.62 s-0.38 0.26 -0.62 0.26 l-5.06 0 l0 5.38 l6 0 c0.25334 0 0.46668 0.08666 0.64002 0.26 s0.26 0.38668 0.26 0.64002 c0 0.24 -0.08666 0.44666 -0.26 0.62 s-0.38668 0.26 -0.64002 0.26 z M186.984 20.3 c-0.61334 0 -1.1867 -0.11668 -1.72 -0.35002 s-1 -0.55 -1.4 -0.95 s-0.71666 -0.86666 -0.95 -1.4 s-0.35 -1.1067 -0.35 -1.72 c0 -0.25334 0.08666 -0.46668 0.26 -0.64002 s0.38668 -0.26 0.64002 -0.26 c0.24 0 0.44666 0.08666 0.62 0.26 s0.26 0.38668 0.26 0.64002 c0 0.36 0.07 0.7 0.21 1.02 s0.33 0.6 0.57 0.84 s0.52 0.43 0.84 0.57 s0.66 0.21 1.02 0.21 s0.70334 -0.07 1.03 -0.21 s0.61 -0.33 0.85 -0.57 s0.43 -0.52 0.57 -0.84 s0.21 -0.66 0.21 -1.02 c0 -0.44 -0.08666 -0.80334 -0.26 -1.09 s-0.41334 -0.53666 -0.72 -0.75 c-0.14666 -0.10666 -0.31332 -0.20332 -0.49998 -0.28998 s-0.38 -0.17666 -0.58 -0.27 c-0.2 -0.08 -0.40666 -0.16 -0.62 -0.24 s-0.43334 -0.16 -0.66 -0.24 c-0.44 -0.16 -0.88334 -0.34 -1.33 -0.54 s-0.84666 -0.45 -1.2 -0.75 s-0.64334 -0.67334 -0.87 -1.12 s-0.34 -0.99666 -0.34 -1.65 c0 -0.61334 0.11666 -1.1867 0.35 -1.72 s0.55 -1 0.95 -1.4 s0.86666 -0.71666 1.4 -0.95 s1.1067 -0.35 1.72 -0.35 s1.19 0.11666 1.73 0.35 s1.01 0.55 1.41 0.95 s0.71666 0.86666 0.95 1.4 s0.35 1.1067 0.35 1.72 c0 0.24 -0.08666 0.44666 -0.26 0.62 s-0.38668 0.26 -0.64002 0.26 c-0.24 0 -0.44666 -0.08666 -0.62 -0.26 s-0.26 -0.38 -0.26 -0.62 c0 -0.36 -0.07 -0.70334 -0.21 -1.03 s-0.33 -0.61 -0.57 -0.85 s-0.52334 -0.43 -0.85 -0.57 s-0.67 -0.21 -1.03 -0.21 s-0.7 0.07 -1.02 0.21 s-0.6 0.33 -0.84 0.57 s-0.43 0.52334 -0.57 0.85 s-0.21 0.67 -0.21 1.03 c0 0.4 0.08334 0.73334 0.25 1 s0.40332 0.5 0.70998 0.7 c0.32 0.2 0.68 0.38 1.08 0.54 l0.64 0.24 l0.66 0.24 c0.44 0.16 0.88334 0.34334 1.33 0.55 s0.84666 0.46666 1.2 0.78 s0.64334 0.70334 0.87 1.17 s0.34 1.04 0.34 1.72 c0 0.61334 -0.11666 1.1867 -0.35 1.72 s-0.55 1 -0.95 1.4 s-0.87 0.71666 -1.41 0.95 s-1.1167 0.35 -1.73 0.35 z M214.202 6.279999999999999 l-3.24 0 l0 13.14 c0 0.24 -0.08666 0.44666 -0.26 0.62 s-0.38 0.26 -0.62 0.26 c-0.25334 0 -0.46668 -0.08666 -0.64002 -0.26 s-0.26 -0.38 -0.26 -0.62 l0 -13.14 l-3.24 0 c-0.24 0 -0.44666 -0.08334 -0.62 -0.25 s-0.26 -0.37666 -0.26 -0.63 c0 -0.24 0.08666 -0.44666 0.26 -0.62 s0.38 -0.26 0.62 -0.26 l8.26 0 c0.24 0 0.44666 0.08666 0.62 0.26 s0.26 0.38 0.26 0.62 c0 0.25334 -0.08666 0.46334 -0.26 0.63 s-0.38 0.25 -0.62 0.25 z M235.38 20.3 l-5.34 0 c-0.24 0 -0.44666 -0.08666 -0.62 -0.26 s-0.26 -0.38 -0.26 -0.62 l0 -14.02 c0 -0.25334 0.08666 -0.46334 0.26 -0.63 s0.38 -0.25 0.62 -0.25 c0.25334 0 0.46334 0.08334 0.63 0.25 s0.25 0.37666 0.25 0.63 l0 13.14 l4.46 0 c0.25334 0 0.46668 0.08666 0.64002 0.26 s0.26 0.38 0.26 0.62 s-0.08666 0.44666 -0.26 0.62 s-0.38668 0.26 -0.64002 0.26 z M257.598 20.3 c-1.0933 0 -2.12 -0.20666 -3.08 -0.62 s-1.7967 -0.97668 -2.51 -1.69 s-1.2767 -1.55 -1.69 -2.51 s-0.62 -1.9867 -0.62 -3.08 c0 -1.08 0.20666 -2.1 0.62 -3.06 s0.97668 -1.7967 1.69 -2.51 s1.55 -1.2767 2.51 -1.69 s1.9867 -0.62 3.08 -0.62 c1.08 0 2.1 0.20666 3.06 0.62 s1.7967 0.97668 2.51 1.69 s1.2767 1.55 1.69 2.51 s0.62 1.98 0.62 3.06 c0 1.0933 -0.20666 2.12 -0.62 3.08 s-0.97668 1.7967 -1.69 2.51 s-1.55 1.2767 -2.51 1.69 s-1.98 0.62 -3.06 0.62 z M257.598 6.279999999999999 c-0.84 0 -1.6333 0.16 -2.38 0.48 s-1.4 0.75666 -1.96 1.31 s-1 1.2033 -1.32 1.95 s-0.48 1.54 -0.48 2.38 s0.16 1.6333 0.48 2.38 s0.76 1.4 1.32 1.96 s1.2133 1 1.96 1.32 s1.54 0.48 2.38 0.48 s1.6333 -0.16 2.38 -0.48 s1.3967 -0.76 1.95 -1.32 s0.99 -1.2133 1.31 -1.96 s0.48 -1.54 0.48 -2.38 s-0.16 -1.6333 -0.48 -2.38 s-0.75666 -1.3967 -1.31 -1.95 s-1.2033 -0.99 -1.95 -1.31 s-1.54 -0.48 -2.38 -0.48 z M289.75600000000003 20.3 c-0.24 0 -0.44 -0.07998 -0.6 -0.23998 l-6.72 -6.44 l0 5.8 c0 0.24 -0.08334 0.44666 -0.25 0.62 s-0.37666 0.26 -0.63 0.26 c-0.24 0 -0.44666 -0.08666 -0.62 -0.26 s-0.26 -0.38 -0.26 -0.62 l0 -14.02 c0 -0.25334 0.08666 -0.46334 0.26 -0.63 s0.38 -0.25 0.62 -0.25 c0.25334 0 0.46334 0.08334 0.63 0.25 s0.25 0.37666 0.25 0.63 l0 5.8 l6.72 -6.44 c0.17334 -0.17334 0.38 -0.25668 0.62 -0.25002 s0.44666 0.09666 0.62 0.27 c0.17334 0.18666 0.25668 0.4 0.25002 0.64 s-0.09666 0.44666 -0.27 0.62 l-6.64 6.36 l6.64 6.38 c0.17334 0.17334 0.26334 0.38 0.27 0.62 s-0.07668 0.44666 -0.25002 0.62 c-0.16 0.18666 -0.37334 0.28 -0.64 0.28 z M317.35400000000004 20.22 c-0.10666 0.05334 -0.21992 0.08 -0.33992 0.08 c-0.17334 0 -0.33668 -0.04666 -0.49002 -0.14 s-0.26334 -0.22668 -0.33 -0.40002 l-1.58 -3.72 l-7.26 0 l-1.58 3.72 c-0.09334 0.22666 -0.25334 0.38666 -0.48 0.48 s-0.45332 0.08668 -0.67998 -0.01998 c-0.22666 -0.09334 -0.38666 -0.25334 -0.48 -0.48 s-0.08668 -0.45332 0.01998 -0.67998 l1.8 -4.26 l4.22 -9.88 c0.06666 -0.17334 0.17332 -0.30668 0.31998 -0.40002 s0.31332 -0.14 0.49998 -0.14 c0.17334 0 0.33334 0.04666 0.48 0.14 s0.25332 0.22668 0.31998 0.40002 c1.0133 2.3734 2.02 4.73 3.02 7.07 s2.0066 4.6966 3.02 7.07 c0.09334 0.22666 0.09334 0.45332 0 0.67998 s-0.25334 0.38666 -0.48 0.48 z M310.994 7.539999999999999 l-2.88 6.72 l5.74 0 z M338.41200000000003 20.3 l-5.34 0 c-0.24 0 -0.44666 -0.08666 -0.62 -0.26 s-0.26 -0.38 -0.26 -0.62 l0 -14.02 c0 -0.25334 0.08666 -0.46334 0.26 -0.63 s0.38 -0.25 0.62 -0.25 c0.25334 0 0.46334 0.08334 0.63 0.25 s0.25 0.37666 0.25 0.63 l0 13.14 l4.46 0 c0.25334 0 0.46668 0.08666 0.64002 0.26 s0.26 0.38 0.26 0.62 s-0.08666 0.44666 -0.26 0.62 s-0.38668 0.26 -0.64002 0.26 z M380.088 6.279999999999999 l-3.24 0 l0 13.14 c0 0.24 -0.08666 0.44666 -0.26 0.62 s-0.38 0.26 -0.62 0.26 c-0.25334 0 -0.46668 -0.08666 -0.64002 -0.26 s-0.26 -0.38 -0.26 -0.62 l0 -13.14 l-3.24 0 c-0.24 0 -0.44666 -0.08334 -0.62 -0.25 s-0.26 -0.37666 -0.26 -0.63 c0 -0.24 0.08666 -0.44666 0.26 -0.62 s0.38 -0.26 0.62 -0.26 l8.26 0 c0.24 0 0.44666 0.08666 0.62 0.26 s0.26 0.38 0.26 0.62 c0 0.25334 -0.08666 0.46334 -0.26 0.63 s-0.38 0.25 -0.62 0.25 z M395.946 20.3 c-0.25334 0 -0.46668 -0.08666 -0.64002 -0.26 s-0.26 -0.38 -0.26 -0.62 l0 -14.02 c0 -0.24 0.08666 -0.44666 0.26 -0.62 s0.38668 -0.26 0.64002 -0.26 c0.24 0 0.44666 0.08666 0.62 0.26 s0.26 0.38 0.26 0.62 l0 14.02 c0 0.24 -0.08666 0.44666 -0.26 0.62 s-0.38 0.26 -0.62 0.26 z M418.66400000000004 20.3 l-5.34 0 c-0.24 0 -0.44666 -0.08666 -0.62 -0.26 s-0.26 -0.38 -0.26 -0.62 l0 -14.02 c0 -0.25334 0.08666 -0.46334 0.26 -0.63 s0.38 -0.25 0.62 -0.25 c0.25334 0 0.46334 0.08334 0.63 0.25 s0.25 0.37666 0.25 0.63 l0 13.14 l4.46 0 c0.25334 0 0.46668 0.08666 0.64002 0.26 s0.26 0.38 0.26 0.62 s-0.08666 0.44666 -0.26 0.62 s-0.38668 0.26 -0.64002 0.26 z M439.64200000000005 20.3 l-5.34 0 c-0.24 0 -0.44666 -0.08666 -0.62 -0.26 s-0.26 -0.38 -0.26 -0.62 l0 -14.02 c0 -0.25334 0.08666 -0.46334 0.26 -0.63 s0.38 -0.25 0.62 -0.25 c0.25334 0 0.46334 0.08334 0.63 0.25 s0.25 0.37666 0.25 0.63 l0 13.14 l4.46 0 c0.25334 0 0.46668 0.08666 0.64002 0.26 s0.26 0.38 0.26 0.62 s-0.08666 0.44666 -0.26 0.62 s-0.38668 0.26 -0.64002 0.26 z M479.51800000000003 20.3 l-4.92 -0.000039062 c-0.16 0 -0.31334 -0.04666 -0.46 -0.14 s-0.25332 -0.21334 -0.31998 -0.36 c-0.12 -0.21334 -0.13334 -0.45334 -0.04 -0.72 l0 -13.68 c0 -0.24 0.08666 -0.44666 0.26 -0.62 s0.38668 -0.26 0.64002 -0.26 l4.82 0 c1.0533 0 2.0134 0.22666 2.88 0.68 s1.6067 1.0467 2.22 1.78 s1.0867 1.5667 1.42 2.5 s0.5 1.88 0.5 2.84 c0 1.1867 -0.20334 2.27 -0.61 3.25 s-0.94 1.82 -1.6 2.52 s-1.41 1.2433 -2.25 1.63 s-1.6867 0.58 -2.54 0.58 z M479.49800000000005 6.279999999999999 l-3.94 -0.000078126 l0 12.26 l3.96 0 c0.76 0 1.4567 -0.18334 2.09 -0.55 s1.1833 -0.84332 1.65 -1.43 s0.83 -1.2533 1.09 -2 s0.39 -1.4933 0.39 -2.24 c0 -0.76 -0.12666 -1.5033 -0.38 -2.23 s-0.61 -1.3733 -1.07 -1.94 s-1.0133 -1.02 -1.66 -1.36 s-1.3567 -0.51 -2.13 -0.51 z M502.59600000000006 20.3 c-0.25334 0 -0.46668 -0.08666 -0.64002 -0.26 s-0.26 -0.38 -0.26 -0.62 l0 -14.02 c0 -0.24 0.08666 -0.44666 0.26 -0.62 s0.38668 -0.26 0.64002 -0.26 c0.24 0 0.44666 0.08666 0.62 0.26 s0.26 0.38 0.26 0.62 l0 14.02 c0 0.24 -0.08666 0.44666 -0.26 0.62 s-0.38 0.26 -0.62 0.26 z M526.6940000000001 6.279999999999999 l-3.24 0 l0 13.14 c0 0.24 -0.08666 0.44666 -0.26 0.62 s-0.38 0.26 -0.62 0.26 c-0.25334 0 -0.46668 -0.08666 -0.64002 -0.26 s-0.26 -0.38 -0.26 -0.62 l0 -13.14 l-3.24 0 c-0.24 0 -0.44666 -0.08334 -0.62 -0.25 s-0.26 -0.37666 -0.26 -0.63 c0 -0.24 0.08666 -0.44666 0.26 -0.62 s0.38 -0.26 0.62 -0.26 l8.26 0 c0.24 0 0.44666 0.08666 0.62 0.26 s0.26 0.38 0.26 0.62 c0 0.25334 -0.08666 0.46334 -0.26 0.63 s-0.38 0.25 -0.62 0.25 z M549.2520000000001 6.279999999999999 l-3.24 0 l0 13.14 c0 0.24 -0.08666 0.44666 -0.26 0.62 s-0.38 0.26 -0.62 0.26 c-0.25334 0 -0.46668 -0.08666 -0.64002 -0.26 s-0.26 -0.38 -0.26 -0.62 l0 -13.14 l-3.24 0 c-0.24 0 -0.44666 -0.08334 -0.62 -0.25 s-0.26 -0.37666 -0.26 -0.63 c0 -0.24 0.08666 -0.44666 0.26 -0.62 s0.38 -0.26 0.62 -0.26 l8.26 0 c0.24 0 0.44666 0.08666 0.62 0.26 s0.26 0.38 0.26 0.62 c0 0.25334 -0.08666 0.46334 -0.26 0.63 s-0.38 0.25 -0.62 0.25 z M593.268 20.3 c-0.33334 0 -0.58668 -0.14 -0.76002 -0.42 l-7.22 -11.44 l0 10.98 c0 0.24 -0.08334 0.44666 -0.25 0.62 s-0.37666 0.26 -0.63 0.26 c-0.24 0 -0.44666 -0.08666 -0.62 -0.26 s-0.26 -0.38 -0.26 -0.62 l0 -14.02 c0 -0.24 0.08666 -0.44666 0.26 -0.62 s0.38 -0.26 0.62 -0.26 c0.33334 0 0.58668 0.13334 0.76002 0.4 l7.22 11.44 l0 -10.96 c0 -0.24 0.08334 -0.44666 0.25 -0.62 s0.37666 -0.26 0.63 -0.26 c0.24 0 0.44666 0.08666 0.62 0.26 s0.26 0.38 0.26 0.62 l0 14.02 c0 0.24 -0.08666 0.44666 -0.26 0.62 s-0.38 0.26 -0.62 0.26 z M621.966 20.22 c-0.10666 0.05334 -0.21992 0.08 -0.33992 0.08 c-0.17334 0 -0.33668 -0.04666 -0.49002 -0.14 s-0.26334 -0.22668 -0.33 -0.40002 l-1.58 -3.72 l-7.26 0 l-1.58 3.72 c-0.09334 0.22666 -0.25334 0.38666 -0.48 0.48 s-0.45332 0.08668 -0.67998 -0.01998 c-0.22666 -0.09334 -0.38666 -0.25334 -0.48 -0.48 s-0.08668 -0.45332 0.01998 -0.67998 l1.8 -4.26 l4.22 -9.88 c0.06666 -0.17334 0.17332 -0.30668 0.31998 -0.40002 s0.31332 -0.14 0.49998 -0.14 c0.17334 0 0.33334 0.04666 0.48 0.14 s0.25332 0.22668 0.31998 0.40002 c1.0133 2.3734 2.02 4.73 3.02 7.07 s2.0066 4.6966 3.02 7.07 c0.09334 0.22666 0.09334 0.45332 0 0.67998 s-0.25334 0.38666 -0.48 0.48 z M615.606 7.539999999999999 l-2.88 6.72 l5.74 0 z M617.266 3.4200000000000017 c-0.32 0 -0.59666 -0.11666 -0.83 -0.35 s-0.35 -0.51 -0.35 -0.83 c0 -0.33334 0.11334 -0.61334 0.34 -0.84 s0.50666 -0.34 0.84 -0.34 s0.61334 0.11334 0.84 0.34 s0.34 0.50666 0.34 0.84 c0 0.32 -0.11666 0.59666 -0.35 0.83 s-0.51 0.35 -0.83 0.35 z M613.866 3.4200000000000017 c-0.32 0 -0.59666 -0.11666 -0.83 -0.35 s-0.35 -0.51 -0.35 -0.83 c0 -0.33334 0.11334 -0.61334 0.34 -0.84 s0.50666 -0.34 0.84 -0.34 s0.61334 0.11334 0.84 0.34 s0.34 0.50666 0.34 0.84 c0 0.32 -0.11666 0.59666 -0.35 0.83 s-0.51 0.35 -0.83 0.35 z M640.544 20.3 c-0.61334 0 -1.1867 -0.11668 -1.72 -0.35002 s-1 -0.55 -1.4 -0.95 s-0.71666 -0.86666 -0.95 -1.4 s-0.35 -1.1067 -0.35 -1.72 c0 -0.25334 0.08666 -0.46668 0.26 -0.64002 s0.38668 -0.26 0.64002 -0.26 c0.24 0 0.44666 0.08666 0.62 0.26 s0.26 0.38668 0.26 0.64002 c0 0.36 0.07 0.7 0.21 1.02 s0.33 0.6 0.57 0.84 s0.52 0.43 0.84 0.57 s0.66 0.21 1.02 0.21 s0.70334 -0.07 1.03 -0.21 s0.61 -0.33 0.85 -0.57 s0.43 -0.52 0.57 -0.84 s0.21 -0.66 0.21 -1.02 c0 -0.44 -0.08666 -0.80334 -0.26 -1.09 s-0.41334 -0.53666 -0.72 -0.75 c-0.14666 -0.10666 -0.31332 -0.20332 -0.49998 -0.28998 s-0.38 -0.17666 -0.58 -0.27 c-0.2 -0.08 -0.40666 -0.16 -0.62 -0.24 s-0.43334 -0.16 -0.66 -0.24 c-0.44 -0.16 -0.88334 -0.34 -1.33 -0.54 s-0.84666 -0.45 -1.2 -0.75 s-0.64334 -0.67334 -0.87 -1.12 s-0.34 -0.99666 -0.34 -1.65 c0 -0.61334 0.11666 -1.1867 0.35 -1.72 s0.55 -1 0.95 -1.4 s0.86666 -0.71666 1.4 -0.95 s1.1067 -0.35 1.72 -0.35 s1.19 0.11666 1.73 0.35 s1.01 0.55 1.41 0.95 s0.71666 0.86666 0.95 1.4 s0.35 1.1067 0.35 1.72 c0 0.24 -0.08666 0.44666 -0.26 0.62 s-0.38668 0.26 -0.64002 0.26 c-0.24 0 -0.44666 -0.08666 -0.62 -0.26 s-0.26 -0.38 -0.26 -0.62 c0 -0.36 -0.07 -0.70334 -0.21 -1.03 s-0.33 -0.61 -0.57 -0.85 s-0.52334 -0.43 -0.85 -0.57 s-0.67 -0.21 -1.03 -0.21 s-0.7 0.07 -1.02 0.21 s-0.6 0.33 -0.84 0.57 s-0.43 0.52334 -0.57 0.85 s-0.21 0.67 -0.21 1.03 c0 0.4 0.08334 0.73334 0.25 1 s0.40332 0.5 0.70998 0.7 c0.32 0.2 0.68 0.38 1.08 0.54 l0.64 0.24 l0.66 0.24 c0.44 0.16 0.88334 0.34334 1.33 0.55 s0.84666 0.46666 1.2 0.78 s0.64334 0.70334 0.87 1.17 s0.34 1.04 0.34 1.72 c0 0.61334 -0.11666 1.1867 -0.35 1.72 s-0.55 1 -0.95 1.4 s-0.87 0.71666 -1.41 0.95 s-1.1167 0.35 -1.73 0.35 z M667.762 6.279999999999999 l-3.24 0 l0 13.14 c0 0.24 -0.08666 0.44666 -0.26 0.62 s-0.38 0.26 -0.62 0.26 c-0.25334 0 -0.46668 -0.08666 -0.64002 -0.26 s-0.26 -0.38 -0.26 -0.62 l0 -13.14 l-3.24 0 c-0.24 0 -0.44666 -0.08334 -0.62 -0.25 s-0.26 -0.37666 -0.26 -0.63 c0 -0.24 0.08666 -0.44666 0.26 -0.62 s0.38 -0.26 0.62 -0.26 l8.26 0 c0.24 0 0.44666 0.08666 0.62 0.26 s0.26 0.38 0.26 0.62 c0 0.25334 -0.08666 0.46334 -0.26 0.63 s-0.38 0.25 -0.62 0.25 z M694.68 20.22 c-0.10666 0.05334 -0.21992 0.08 -0.33992 0.08 c-0.17334 0 -0.33668 -0.04666 -0.49002 -0.14 s-0.26334 -0.22668 -0.33 -0.40002 l-1.58 -3.72 l-7.26 0 l-1.58 3.72 c-0.09334 0.22666 -0.25334 0.38666 -0.48 0.48 s-0.45332 0.08668 -0.67998 -0.01998 c-0.22666 -0.09334 -0.38666 -0.25334 -0.48 -0.48 s-0.08668 -0.45332 0.01998 -0.67998 l1.8 -4.26 l4.22 -9.88 c0.06666 -0.17334 0.17332 -0.30668 0.31998 -0.40002 s0.31332 -0.14 0.49998 -0.14 c0.17334 0 0.33334 0.04666 0.48 0.14 s0.25332 0.22668 0.31998 0.40002 c1.0133 2.3734 2.02 4.73 3.02 7.07 s2.0066 4.6966 3.02 7.07 c0.09334 0.22666 0.09334 0.45332 0 0.67998 s-0.25334 0.38666 -0.48 0.48 z M688.3199999999999 7.539999999999999 l-2.88 6.72 l5.74 0 z M736.616 20.3 l-6.88 -0.000019531 c-0.25334 0 -0.46668 -0.08666 -0.64002 -0.26 s-0.26 -0.38 -0.26 -0.62 l0 -0.04 l0 -0.04 l0 -13.94 c0 -0.24 0.08666 -0.44666 0.26 -0.62 s0.38668 -0.26 0.64002 -0.26 l6.88 0 c0.25334 0 0.46668 0.08666 0.64002 0.26 s0.26 0.38 0.26 0.62 c0 0.25334 -0.08666 0.46334 -0.26 0.63 s-0.38668 0.25 -0.64002 0.25 l-6 0 l0 5.1 l5.06 0 c0.24 0 0.44666 0.08334 0.62 0.25 s0.26 0.37666 0.26 0.63 c0 0.24 -0.08666 0.44666 -0.26 0.62 s-0.38 0.26 -0.62 0.26 l-5.06 0 l0 5.38 l6 0 c0.25334 0 0.46668 0.08666 0.64002 0.26 s0.26 0.38668 0.26 0.64002 c0 0.24 -0.08666 0.44666 -0.26 0.62 s-0.38668 0.26 -0.64002 0.26 z M763.554 5.6 l-5.7 14.14 c-0.06666 0.17334 -0.17332 0.31 -0.31998 0.41 s-0.31332 0.15 -0.49998 0.15 s-0.35332 -0.05 -0.49998 -0.15 s-0.25332 -0.23666 -0.31998 -0.41 l-5.72 -14.14 c-0.04 -0.09334 -0.06 -0.20668 -0.06 -0.34002 c0 -0.24 0.08666 -0.44666 0.26 -0.62 s0.38 -0.26 0.62 -0.26 c0.18666 0 0.35666 0.05 0.51 0.15 s0.26334 0.23666 0.33 0.41 l4.88 12.1 l4.88 -12.1 c0.06666 -0.17334 0.17332 -0.31 0.31998 -0.41 s0.31332 -0.15 0.49998 -0.15 c0.25334 0 0.46668 0.08666 0.64002 0.26 s0.26 0.38 0.26 0.62 c0 0.13334 -0.02666 0.24668 -0.08 0.34002 z M785.492 20.3 l-6.88 -0.000019531 c-0.25334 0 -0.46668 -0.08666 -0.64002 -0.26 s-0.26 -0.38 -0.26 -0.62 l0 -0.04 l0 -0.04 l0 -13.94 c0 -0.24 0.08666 -0.44666 0.26 -0.62 s0.38668 -0.26 0.64002 -0.26 l6.88 0 c0.25334 0 0.46668 0.08666 0.64002 0.26 s0.26 0.38 0.26 0.62 c0 0.25334 -0.08666 0.46334 -0.26 0.63 s-0.38668 0.25 -0.64002 0.25 l-6 0 l0 5.1 l5.06 0 c0.24 0 0.44666 0.08334 0.62 0.25 s0.26 0.37666 0.26 0.63 c0 0.24 -0.08666 0.44666 -0.26 0.62 s-0.38 0.26 -0.62 0.26 l-5.06 0 l0 5.38 l6 0 c0.25334 0 0.46668 0.08666 0.64002 0.26 s0.26 0.38668 0.26 0.64002 c0 0.24 -0.08666 0.44666 -0.26 0.62 s-0.38668 0.26 -0.64002 0.26 z M810.5899999999999 20.3 c-0.33334 0 -0.58668 -0.14 -0.76002 -0.42 l-7.22 -11.44 l0 10.98 c0 0.24 -0.08334 0.44666 -0.25 0.62 s-0.37666 0.26 -0.63 0.26 c-0.24 0 -0.44666 -0.08666 -0.62 -0.26 s-0.26 -0.38 -0.26 -0.62 l0 -14.02 c0 -0.24 0.08666 -0.44666 0.26 -0.62 s0.38 -0.26 0.62 -0.26 c0.33334 0 0.58668 0.13334 0.76002 0.4 l7.22 11.44 l0 -10.96 c0 -0.24 0.08334 -0.44666 0.25 -0.62 s0.37666 -0.26 0.63 -0.26 c0.24 0 0.44666 0.08666 0.62 0.26 s0.26 0.38 0.26 0.62 l0 14.02 c0 0.24 -0.08666 0.44666 -0.26 0.62 s-0.38 0.26 -0.62 0.26 z M834.6879999999999 6.279999999999999 l-3.24 0 l0 13.14 c0 0.24 -0.08666 0.44666 -0.26 0.62 s-0.38 0.26 -0.62 0.26 c-0.25334 0 -0.46668 -0.08666 -0.64002 -0.26 s-0.26 -0.38 -0.26 -0.62 l0 -13.14 l-3.24 0 c-0.24 0 -0.44666 -0.08334 -0.62 -0.25 s-0.26 -0.37666 -0.26 -0.63 c0 -0.24 0.08666 -0.44666 0.26 -0.62 s0.38 -0.26 0.62 -0.26 l8.26 0 c0.24 0 0.44666 0.08666 0.62 0.26 s0.26 0.38 0.26 0.62 c0 0.25334 -0.08666 0.46334 -0.26 0.63 s-0.38 0.25 -0.62 0.25 z M869.8639999999998 20.3 c-0.25334 0 -0.46668 -0.08666 -0.64002 -0.26 s-0.26 -0.38 -0.26 -0.62 l0 -14.02 c0 -0.24 0.08666 -0.44666 0.26 -0.62 s0.38668 -0.26 0.64002 -0.26 c0.24 0 0.44666 0.08666 0.62 0.26 s0.26 0.38 0.26 0.62 l0 14.02 c0 0.24 -0.08666 0.44666 -0.26 0.62 s-0.38 0.26 -0.62 0.26 z M909.6599999999999 20.3 c-0.61334 0 -1.1867 -0.11668 -1.72 -0.35002 s-1 -0.55 -1.4 -0.95 s-0.71666 -0.86666 -0.95 -1.4 s-0.35 -1.1067 -0.35 -1.72 c0 -0.25334 0.08666 -0.46668 0.26 -0.64002 s0.38668 -0.26 0.64002 -0.26 c0.24 0 0.44666 0.08666 0.62 0.26 s0.26 0.38668 0.26 0.64002 c0 0.36 0.07 0.7 0.21 1.02 s0.33 0.6 0.57 0.84 s0.52 0.43 0.84 0.57 s0.66 0.21 1.02 0.21 s0.70334 -0.07 1.03 -0.21 s0.61 -0.33 0.85 -0.57 s0.43 -0.52 0.57 -0.84 s0.21 -0.66 0.21 -1.02 c0 -0.44 -0.08666 -0.80334 -0.26 -1.09 s-0.41334 -0.53666 -0.72 -0.75 c-0.14666 -0.10666 -0.31332 -0.20332 -0.49998 -0.28998 s-0.38 -0.17666 -0.58 -0.27 c-0.2 -0.08 -0.40666 -0.16 -0.62 -0.24 s-0.43334 -0.16 -0.66 -0.24 c-0.44 -0.16 -0.88334 -0.34 -1.33 -0.54 s-0.84666 -0.45 -1.2 -0.75 s-0.64334 -0.67334 -0.87 -1.12 s-0.34 -0.99666 -0.34 -1.65 c0 -0.61334 0.11666 -1.1867 0.35 -1.72 s0.55 -1 0.95 -1.4 s0.86666 -0.71666 1.4 -0.95 s1.1067 -0.35 1.72 -0.35 s1.19 0.11666 1.73 0.35 s1.01 0.55 1.41 0.95 s0.71666 0.86666 0.95 1.4 s0.35 1.1067 0.35 1.72 c0 0.24 -0.08666 0.44666 -0.26 0.62 s-0.38668 0.26 -0.64002 0.26 c-0.24 0 -0.44666 -0.08666 -0.62 -0.26 s-0.26 -0.38 -0.26 -0.62 c0 -0.36 -0.07 -0.70334 -0.21 -1.03 s-0.33 -0.61 -0.57 -0.85 s-0.52334 -0.43 -0.85 -0.57 s-0.67 -0.21 -1.03 -0.21 s-0.7 0.07 -1.02 0.21 s-0.6 0.33 -0.84 0.57 s-0.43 0.52334 -0.57 0.85 s-0.21 0.67 -0.21 1.03 c0 0.4 0.08334 0.73334 0.25 1 s0.40332 0.5 0.70998 0.7 c0.32 0.2 0.68 0.38 1.08 0.54 l0.64 0.24 l0.66 0.24 c0.44 0.16 0.88334 0.34334 1.33 0.55 s0.84666 0.46666 1.2 0.78 s0.64334 0.70334 0.87 1.17 s0.34 1.04 0.34 1.72 c0 0.61334 -0.11666 1.1867 -0.35 1.72 s-0.55 1 -0.95 1.4 s-0.87 0.71666 -1.41 0.95 s-1.1167 0.35 -1.73 0.35 z M936.8779999999998 6.279999999999999 l-3.24 0 l0 13.14 c0 0.24 -0.08666 0.44666 -0.26 0.62 s-0.38 0.26 -0.62 0.26 c-0.25334 0 -0.46668 -0.08666 -0.64002 -0.26 s-0.26 -0.38 -0.26 -0.62 l0 -13.14 l-3.24 0 c-0.24 0 -0.44666 -0.08334 -0.62 -0.25 s-0.26 -0.37666 -0.26 -0.63 c0 -0.24 0.08666 -0.44666 0.26 -0.62 s0.38 -0.26 0.62 -0.26 l8.26 0 c0.24 0 0.44666 0.08666 0.62 0.26 s0.26 0.38 0.26 0.62 c0 0.25334 -0.08666 0.46334 -0.26 0.63 s-0.38 0.25 -0.62 0.25 z M959.2959999999998 20.3 c-1.0933 0 -2.12 -0.20666 -3.08 -0.62 s-1.7967 -0.97668 -2.51 -1.69 s-1.2767 -1.55 -1.69 -2.51 s-0.62 -1.9867 -0.62 -3.08 c0 -1.08 0.20666 -2.1 0.62 -3.06 s0.97668 -1.7967 1.69 -2.51 s1.55 -1.2767 2.51 -1.69 s1.9867 -0.62 3.08 -0.62 c1.08 0 2.1 0.20666 3.06 0.62 s1.7967 0.97668 2.51 1.69 s1.2767 1.55 1.69 2.51 s0.62 1.98 0.62 3.06 c0 1.0933 -0.20666 2.12 -0.62 3.08 s-0.97668 1.7967 -1.69 2.51 s-1.55 1.2767 -2.51 1.69 s-1.98 0.62 -3.06 0.62 z M959.2959999999998 6.279999999999999 c-0.84 0 -1.6333 0.16 -2.38 0.48 s-1.4 0.75666 -1.96 1.31 s-1 1.2033 -1.32 1.95 s-0.48 1.54 -0.48 2.38 s0.16 1.6333 0.48 2.38 s0.76 1.4 1.32 1.96 s1.2133 1 1.96 1.32 s1.54 0.48 2.38 0.48 s1.6333 -0.16 2.38 -0.48 s1.3967 -0.76 1.95 -1.32 s0.99 -1.2133 1.31 -1.96 s0.48 -1.54 0.48 -2.38 s-0.16 -1.6333 -0.48 -2.38 s-0.75666 -1.3967 -1.31 -1.95 s-1.2033 -0.99 -1.95 -1.31 s-1.54 -0.48 -2.38 -0.48 z M989.9139999999999 20.3 c-1.1067 0 -2.1434 -0.21006 -3.11 -0.63006 s-1.81 -0.99 -2.53 -1.71 s-1.29 -1.5633 -1.71 -2.53 s-0.63 -2.0034 -0.63 -3.11 c0 -1.0933 0.21 -2.1166 0.63 -3.07 s0.99 -1.78 1.71 -2.48 s1.5633 -1.25 2.53 -1.65 s2.0034 -0.6 3.11 -0.6 c1.0667 0 2.08 0.19666 3.04 0.59 s1.82 0.97 2.58 1.73 c0.18666 0.18666 0.28 0.4 0.28 0.64 s-0.09334 0.44666 -0.28 0.62 c-0.17334 0.17334 -0.38 0.26 -0.62 0.26 s-0.44666 -0.08666 -0.62 -0.26 c-0.6 -0.6 -1.2733 -1.0533 -2.02 -1.36 s-1.5333 -0.46 -2.36 -0.46 c-0.86666 0 -1.6767 0.15666 -2.43 0.47 s-1.41 0.74 -1.97 1.28 s-1 1.1767 -1.32 1.91 s-0.48 1.5267 -0.48 2.38 s0.16334 1.6567 0.49 2.41 s0.77 1.41 1.33 1.97 s1.2167 1.0033 1.97 1.33 s1.5567 0.49 2.41 0.49 c0.82666 0 1.6133 -0.15334 2.36 -0.46 s1.42 -0.75332 2.02 -1.34 c0.17334 -0.18666 0.38 -0.28 0.62 -0.28 s0.44666 0.09334 0.62 0.28 c0.18666 0.17334 0.28 0.38 0.28 0.62 s-0.09334 0.44666 -0.28 0.62 c-0.76 0.76 -1.62 1.34 -2.58 1.74 s-1.9733 0.6 -3.04 0.6 z M1020.0719999999999 20.3 c-0.24 0 -0.44 -0.07998 -0.6 -0.23998 l-6.72 -6.44 l0 5.8 c0 0.24 -0.08334 0.44666 -0.25 0.62 s-0.37666 0.26 -0.63 0.26 c-0.24 0 -0.44666 -0.08666 -0.62 -0.26 s-0.26 -0.38 -0.26 -0.62 l0 -14.02 c0 -0.25334 0.08666 -0.46334 0.26 -0.63 s0.38 -0.25 0.62 -0.25 c0.25334 0 0.46334 0.08334 0.63 0.25 s0.25 0.37666 0.25 0.63 l0 5.8 l6.72 -6.44 c0.17334 -0.17334 0.38 -0.25668 0.62 -0.25002 s0.44666 0.09666 0.62 0.27 c0.17334 0.18666 0.25668 0.4 0.25002 0.64 s-0.09666 0.44666 -0.27 0.62 l-6.64 6.36 l6.64 6.38 c0.17334 0.17334 0.26334 0.38 0.27 0.62 s-0.07668 0.44666 -0.25002 0.62 c-0.16 0.18666 -0.37334 0.28 -0.64 0.28 z M1046.23 20.3 c-0.24 0 -0.44666 -0.08666 -0.62 -0.26 s-0.26 -0.38 -0.26 -0.62 l0 -6.78 l-7.86 0 l0 6.78 c0 0.24 -0.08666 0.44666 -0.26 0.62 s-0.38 0.26 -0.62 0.26 c-0.25334 0 -0.46668 -0.08666 -0.64002 -0.26 s-0.26 -0.38 -0.26 -0.62 l0 -14.02 c0 -0.24 0.08666 -0.44666 0.26 -0.62 s0.38668 -0.26 0.64002 -0.26 c0.24 0 0.44666 0.08666 0.62 0.26 s0.26 0.38 0.26 0.62 l0 5.46 l7.86 0 l0 -5.46 c0 -0.24 0.08666 -0.44666 0.26 -0.62 s0.38 -0.26 0.62 -0.26 c0.25334 0 0.46668 0.08666 0.64002 0.26 s0.26 0.38 0.26 0.62 l0 14.02 c0 0.24 -0.08666 0.44666 -0.26 0.62 s-0.38668 0.26 -0.64002 0.26 z M1070.2079999999999 20.3 c-1.0933 0 -2.12 -0.20666 -3.08 -0.62 s-1.7967 -0.97668 -2.51 -1.69 s-1.2767 -1.55 -1.69 -2.51 s-0.62 -1.9867 -0.62 -3.08 c0 -1.08 0.20666 -2.1 0.62 -3.06 s0.97668 -1.7967 1.69 -2.51 s1.55 -1.2767 2.51 -1.69 s1.9867 -0.62 3.08 -0.62 c1.08 0 2.1 0.20666 3.06 0.62 s1.7967 0.97668 2.51 1.69 s1.2767 1.55 1.69 2.51 s0.62 1.98 0.62 3.06 c0 1.0933 -0.20666 2.12 -0.62 3.08 s-0.97668 1.7967 -1.69 2.51 s-1.55 1.2767 -2.51 1.69 s-1.98 0.62 -3.06 0.62 z M1070.2079999999999 6.279999999999999 c-0.84 0 -1.6333 0.16 -2.38 0.48 s-1.4 0.75666 -1.96 1.31 s-1 1.2033 -1.32 1.95 s-0.48 1.54 -0.48 2.38 s0.16 1.6333 0.48 2.38 s0.76 1.4 1.32 1.96 s1.2133 1 1.96 1.32 s1.54 0.48 2.38 0.48 s1.6333 -0.16 2.38 -0.48 s1.3967 -0.76 1.95 -1.32 s0.99 -1.2133 1.31 -1.96 s0.48 -1.54 0.48 -2.38 s-0.16 -1.6333 -0.48 -2.38 s-0.75666 -1.3967 -1.31 -1.95 s-1.2033 -0.99 -1.95 -1.31 s-1.54 -0.48 -2.38 -0.48 z M1099.506 20.3 l-5.34 0 c-0.24 0 -0.44666 -0.08666 -0.62 -0.26 s-0.26 -0.38 -0.26 -0.62 l0 -14.02 c0 -0.25334 0.08666 -0.46334 0.26 -0.63 s0.38 -0.25 0.62 -0.25 c0.25334 0 0.46334 0.08334 0.63 0.25 s0.25 0.37666 0.25 0.63 l0 13.14 l4.46 0 c0.25334 0 0.46668 0.08666 0.64002 0.26 s0.26 0.38 0.26 0.62 s-0.08666 0.44666 -0.26 0.62 s-0.38668 0.26 -0.64002 0.26 z M1128.9840000000002 20.3 c-0.24 0 -0.44666 -0.08666 -0.62 -0.26 s-0.26 -0.38 -0.26 -0.62 l0 -10.42 l-5.24 10.8 c-0.08 0.14666 -0.19334 0.26666 -0.34 0.36 s-0.3 0.14 -0.46 0.14 s-0.31334 -0.04666 -0.46 -0.14 s-0.26 -0.21334 -0.34 -0.36 l-5.24 -10.8 l0 10.42 c0 0.24 -0.08334 0.44666 -0.25 0.62 s-0.37666 0.26 -0.63 0.26 c-0.24 0 -0.44666 -0.08666 -0.62 -0.26 s-0.26 -0.38 -0.26 -0.62 l0 -14.02 c0 -0.24 0.08666 -0.44666 0.26 -0.62 s0.38 -0.26 0.62 -0.26 c0.36 0 0.62666 0.16 0.8 0.48 l6.12 12.42 l6.12 -12.42 c0.17334 -0.32 0.44 -0.48 0.8 -0.48 c0.24 0 0.44666 0.08666 0.62 0.26 s0.26 0.38 0.26 0.62 l0 14.02 c0 0.24 -0.08666 0.44666 -0.26 0.62 s-0.38 0.26 -0.62 0.26 z"></path></g></svg>