<svg width="64" height="64" viewBox="0 0 64 64" fill="none" xmlns="http://www.w3.org/2000/svg">
<g clip-path="url(#clip0_706_5)">
<path d="M13.5824 45V18.8182H23.6051C25.4972 18.8182 27.0696 19.1165 28.3224 19.7131C29.5838 20.3011 30.5256 21.1065 31.1477 22.1293C31.7784 23.152 32.0938 24.3111 32.0938 25.6065C32.0938 26.6719 31.8892 27.5838 31.4801 28.3423C31.071 29.0923 30.5213 29.7017 29.831 30.1705C29.1406 30.6392 28.3693 30.9759 27.517 31.1804V31.4361C28.446 31.4872 29.3366 31.7727 30.1889 32.2926C31.0497 32.804 31.7528 33.5284 32.2983 34.4659C32.8438 35.4034 33.1165 36.5369 33.1165 37.8665C33.1165 39.2216 32.7884 40.4403 32.1321 41.5227C31.4759 42.5966 30.4872 43.4446 29.1662 44.0668C27.8452 44.6889 26.1832 45 24.1804 45H13.5824ZM18.3253 41.0369H23.4261C25.1477 41.0369 26.3878 40.7088 27.1463 40.0526C27.9134 39.3878 28.2969 38.5355 28.2969 37.4957C28.2969 36.7202 28.1051 36.0213 27.7216 35.3991C27.3381 34.7685 26.7926 34.2741 26.0852 33.9162C25.3778 33.5497 24.5341 33.3665 23.554 33.3665H18.3253V41.0369ZM18.3253 29.9531H23.017C23.8352 29.9531 24.5724 29.804 25.2287 29.5057C25.8849 29.1989 26.4006 28.7685 26.7756 28.2145C27.1591 27.652 27.3509 26.9872 27.3509 26.2202C27.3509 25.206 26.9929 24.3707 26.277 23.7145C25.5696 23.0582 24.517 22.7301 23.1193 22.7301H18.3253V29.9531Z" fill="white"/>
<path d="M42.1349 28.6364L45.4375 34.6768L48.7933 28.6364H52.8736L47.9411 36.8182L52.9588 45H48.8999L45.4375 39.1087L42.0071 45H37.9162L42.902 36.8182L38.044 28.6364H42.1349Z" fill="white"/>
<path d="M44.9436 9.12432L38.1628 39.2197L31.3822 38.1735L36.7943 7.86691L44.9436 9.12432ZM32.1462 51.7301C30.8687 51.533 29.8635 50.9184 29.1306 49.8864C28.4117 48.8566 28.1813 47.7012 28.4395 46.4201C28.692 45.1669 29.3573 44.164 30.4353 43.4115C31.5274 42.6611 32.7122 42.3844 33.9897 42.5816C35.2391 42.7743 36.2303 43.3867 36.9632 44.4187C37.7102 45.4528 37.9574 46.5965 37.7048 47.8497C37.5337 48.6991 37.1604 49.4384 36.5849 50.0675C36.0234 50.6987 35.3497 51.1691 34.5636 51.4785C33.7943 51.7762 32.9885 51.86 32.1462 51.7301Z" fill="#9C51B6"/>
</g>
<defs>
<clipPath id="clip0_706_5">
<rect width="64" height="64" fill="white"/>
</clipPath>
</defs>
</svg>
