<svg width="32" height="32" viewBox="0 0 32 32" fill="none" xmlns="http://www.w3.org/2000/svg">
<g clip-path="url(#clip0_705_9)">
<path d="M5.15199 26V4.18182H19.1293V7.49503H9.1044V13.4183H18.1705V16.7315H9.1044V26H5.15199Z" fill="white"/>
<path d="M28.206 1.69529L24.3791 20.8343L20.0999 20.0798L23.063 0.78845L28.206 1.69529ZM20.7773 28.7496C19.9711 28.6074 19.33 28.2021 18.8541 27.5335C18.3871 26.8665 18.2254 26.1255 18.3691 25.3104C18.5097 24.513 18.9135 23.8809 19.5805 23.4138C20.2564 22.9484 20.9974 22.7867 21.8036 22.9289C22.5921 23.0679 23.2243 23.4717 23.7002 24.1402C24.185 24.8103 24.357 25.5441 24.2164 26.3414C24.1211 26.8819 23.8971 27.3494 23.5444 27.7439C23.2005 28.14 22.7836 28.4319 22.2938 28.6196C21.8143 28.8 21.3088 28.8433 20.7773 28.7496Z" fill="#9C51B6"/>
</g>
<defs>
<clipPath id="clip0_705_9">
<rect width="32" height="32" fill="white"/>
</clipPath>
</defs>
</svg>
